<svg version="1.1" id="Layer_1" xmlns="http://www.w3.org/2000/svg" xmlns:xlink="http://www.w3.org/1999/xlink" x="0px" y="0px"
	 width="100%" viewBox="0 0 860 747" enable-background="new 0 0 860 747" xml:space="preserve">
<path fill="none" opacity="1.000000" stroke="#000000" stroke-linecap="round" stroke-linejoin="round" stroke-width="2.000000"
	d="
M5.000000,34.000000 
	C5.000000,270.333344 5.000000,506.666656 5.000000,743.250000 
	C288.666473,743.250000 572.333252,743.250000 856.250000,743.250000 
	C856.250000,497.333557 856.250000,251.166779 856.250000,4.750000 
	C572.833313,4.750000 289.166656,4.750000 4.933540,4.750000 
	C5.364856,14.500000 4.331113,24.000000 5.500000,33.500000 
"/>
<path fill="none" opacity="1.000000" stroke="#000000" stroke-linecap="round" stroke-linejoin="round" stroke-width="2.000000"
	d="
M328.500000,573.000000 
	C322.358673,574.104675 316.165436,573.382141 309.999512,573.460571 
	C299.001282,573.600525 287.999817,573.470093 277.000183,573.532166 
	C275.339539,573.541504 273.567902,572.845703 271.750000,574.498108 
	C271.750000,590.666687 271.750000,607.333313 271.750000,624.250000 
	C310.331879,624.250000 348.665955,624.250000 387.250000,624.250000 
	C387.250000,607.669983 387.250000,590.834961 387.250000,573.500000 
	C376.004822,573.500000 364.500854,573.615845 353.000549,573.460327 
	C345.000824,573.352112 336.979675,574.142822 329.000000,573.000000 
"/>
<path fill="none" opacity="1.000000" stroke="#000000" stroke-linecap="round" stroke-linejoin="round" stroke-width="2.000000"
	d="
M786.000000,677.500000 
	C767.000000,677.500000 748.000000,677.500000 728.750000,677.500000 
	C728.750000,694.330017 728.750000,711.165039 728.750000,728.250000 
	C766.833313,728.250000 805.166687,728.250000 843.750000,728.250000 
	C843.750000,711.336670 843.750000,694.668335 843.750000,677.500000 
	C825.002930,677.500000 806.001465,677.500000 787.000000,677.500000 
"/>
<path fill="none" opacity="1.000000" stroke="#000000" stroke-linecap="round" stroke-linejoin="round" stroke-width="2.000000"
	d="
M634.500000,573.000000 
	C627.858276,574.164307 621.165039,573.375122 614.499451,573.455627 
	C601.832458,573.608765 589.162292,573.500000 576.250000,573.500000 
	C576.250000,590.666687 576.250000,607.333313 576.250000,624.250000 
	C614.833313,624.250000 653.166687,624.250000 691.750000,624.250000 
	C691.750000,607.333313 691.750000,590.666687 691.750000,573.500000 
	C685.342346,573.500000 679.171143,573.500000 673.000000,573.500000 
	C662.000000,573.500000 651.000000,573.511292 640.000000,573.488037 
	C638.325439,573.484497 636.603210,573.801270 635.000000,573.000000 
"/>
<path fill="none" opacity="1.000000" stroke="#000000" stroke-linecap="round" stroke-linejoin="round" stroke-width="2.000000"
	d="
M179.000000,688.500000 
	C160.000000,688.500000 141.000000,688.500000 121.750000,688.500000 
	C121.750000,703.166687 121.750000,717.833313 121.750000,732.750000 
	C160.333328,732.750000 198.666672,732.750000 237.250000,732.750000 
	C237.250000,718.003845 237.250000,703.501892 237.250000,688.500000 
	C218.336227,688.500000 199.168121,688.500000 180.000000,688.500000 
"/>
<path fill="none" opacity="1.000000" stroke="#000000" stroke-linecap="round" stroke-linejoin="round" stroke-width="2.000000"
	d="
M483.000000,686.500000 
	C464.000000,686.500000 445.000000,686.500000 425.750000,686.500000 
	C425.750000,700.833313 425.750000,715.166687 425.750000,729.750000 
	C464.333344,729.750000 502.666656,729.750000 541.500000,729.750000 
	C541.500000,716.170837 541.460938,702.835205 541.526184,689.500122 
	C541.543518,685.963196 539.139709,686.506531 537.000000,686.505371 
	C519.333313,686.495911 501.666656,686.500000 484.000000,686.500000 
"/>
<path fill="none" opacity="1.000000" stroke="#000000" stroke-linecap="round" stroke-linejoin="round" stroke-width="2.000000"
	d="
M263.500000,235.500000 
	C262.950409,234.357162 262.400848,233.214340 261.397522,231.127960 
	C277.611481,229.770370 293.331573,230.945297 309.500000,230.376389 
	C309.500000,170.334259 309.500000,110.167130 309.500000,49.750000 
	C244.000854,49.750000 178.500427,49.750000 112.750000,49.750000 
	C112.750000,109.666664 112.750000,169.833328 112.750000,230.500000 
	C116.662285,230.500000 120.332840,230.427719 123.999680,230.513550 
	C134.998611,230.770981 146.012863,229.901993 157.001617,230.983505 
	C158.616394,231.142441 160.783798,230.549530 159.500000,233.500000 
"/>
<path fill="none" opacity="1.000000" stroke="#000000" stroke-linecap="round" stroke-linejoin="round" stroke-width="2.000000"
	d="
M17.000000,298.500000 
	C15.941300,300.077454 16.535318,301.843506 16.534039,303.500031 
	C16.492727,357.000000 16.500000,410.500000 16.500000,464.500000 
	C74.332375,464.500000 132.166183,464.500000 190.250000,464.500000 
	C190.250000,400.667542 190.250000,336.833771 190.250000,272.500000 
	C132.667633,272.500000 74.833817,272.500000 16.423893,272.500000 
	C16.850164,281.000000 15.854878,289.500000 17.000000,298.000000 
"/>
<path fill="none" opacity="1.000000" stroke="#000000" stroke-linecap="round" stroke-linejoin="round" stroke-width="2.000000"
	d="
M113.500000,82.500000 
	C178.500000,82.500000 243.500000,82.500000 308.500000,82.500000 
"/>
<path fill="none" opacity="1.000000" stroke="#000000" stroke-linecap="round" stroke-linejoin="round" stroke-width="3.000000"
	d="
M484.000000,142.500000 
	C485.603210,141.698730 487.325531,142.013443 489.000000,142.011719 
	C507.166656,141.992996 525.333313,142.000000 543.500000,142.000000 
	C545.183350,142.000000 546.866638,142.000000 548.750000,142.000000 
	C548.750000,112.833336 548.750000,84.166664 548.750000,55.250000 
	C505.334625,55.250000 462.167297,55.250000 418.500000,55.250000 
	C418.500000,83.833336 418.500000,112.666664 418.500000,142.000000 
	C422.149139,142.000000 425.324585,142.000000 428.500000,142.000000 
	C445.000000,142.000000 461.500000,141.992310 478.000000,142.011749 
	C479.674469,142.013733 481.396790,141.698730 483.000000,142.500000 
"/>
<path fill="none" opacity="1.000000" stroke="#000000" stroke-linecap="round" stroke-linejoin="round" stroke-width="2.000000"
	d="
M189.500000,298.000000 
	C188.646194,299.043793 187.487076,298.468781 186.499985,298.469391 
	C131.166672,298.503815 75.833336,298.503845 20.500019,298.469421 
	C19.512930,298.468811 18.353811,299.043793 17.500000,298.000000 
"/>
<path fill="none" opacity="1.000000" stroke="#000000" stroke-linecap="round" stroke-linejoin="round" stroke-width="2.000000"
	d="
M785.500000,573.000000 
	C792.141724,574.164307 798.834961,573.375122 805.500549,573.455627 
	C818.167542,573.608704 830.837708,573.500000 843.750000,573.500000 
	C843.750000,590.666687 843.750000,607.333313 843.750000,624.500000 
	C805.334778,624.500000 767.167419,624.500000 728.750000,624.500000 
	C728.750000,607.669983 728.750000,590.834961 728.750000,573.500000 
	C740.662109,573.500000 752.832031,573.593201 764.999634,573.462952 
	C771.665710,573.391663 778.356201,574.080505 785.000000,573.000000 
"/>
<path fill="none" opacity="1.000000" stroke="#000000" stroke-linecap="round" stroke-linejoin="round" stroke-width="2.000000"
	d="
M483.000000,469.500000 
	C464.000000,469.500000 445.000000,469.500000 425.750000,469.500000 
	C425.750000,486.330048 425.750000,503.165009 425.750000,520.500000 
	C464.000000,520.500000 502.500000,520.500000 541.250000,520.500000 
	C541.250000,503.333344 541.250000,486.666656 541.250000,469.500000 
	C522.002930,469.500000 503.001465,469.500000 484.000000,469.500000 
"/>
<path fill="none" opacity="1.000000" stroke="#000000" stroke-linecap="round" stroke-linejoin="round" stroke-width="2.000000"
	d="
M483.000000,573.500000 
	C464.000000,573.500000 445.000000,573.500000 425.750000,573.500000 
	C425.750000,590.330017 425.750000,607.165039 425.750000,624.500000 
	C427.321869,624.500000 429.160919,624.500000 431.000000,624.500000 
	C466.000000,624.500000 501.000000,624.500977 536.000000,624.499023 
	C541.492554,624.498718 541.497742,624.492554 541.499023,619.000000 
	C541.502136,605.666687 541.525024,592.333191 541.468201,579.000122 
	C541.461121,577.339783 542.154297,575.567932 540.274658,573.500000 
	C522.002930,573.500000 503.001465,573.500000 484.000000,573.500000 
"/>
<path fill="none" opacity="1.000000" stroke="#000000" stroke-linecap="round" stroke-linejoin="round" stroke-width="2.000000"
	d="
M401.500000,348.000000 
	C403.077454,349.058685 404.843506,348.464661 406.500031,348.465942 
	C459.333344,348.507355 512.166687,348.500000 565.000000,348.500000 
"/>
<path fill="none" opacity="1.000000" stroke="#000000" stroke-linecap="round" stroke-linejoin="round" stroke-width="2.000000"
	d="
M136.000000,5.500000 
	C136.000000,7.000000 135.827682,8.523635 136.029633,9.995935 
	C136.937576,16.615246 134.356155,21.261311 129.747849,26.229874 
	C124.293472,32.110661 118.613991,33.714077 110.998665,33.643276 
	C76.001694,33.317909 41.000000,33.500000 6.000000,33.500000 
"/>
<path fill="none" opacity="1.000000" stroke="#000000" stroke-linecap="round" stroke-linejoin="round" stroke-width="2.000000"
	d="
M676.500000,523.000000 
	C668.020752,521.774109 659.494263,522.959778 650.750000,522.381287 
	C650.750000,505.833344 650.750000,489.166656 650.750000,472.000000 
	C689.333313,472.000000 727.666687,472.000000 766.250000,472.000000 
	C766.250000,488.996643 766.250000,505.498322 766.250000,522.296204 
	C757.862976,523.104797 749.130493,521.726135 740.500000,523.000000 
"/>
<path fill="none" opacity="1.000000" stroke="#000000" stroke-linecap="round" stroke-linejoin="round" stroke-width="2.000000"
	d="
M262.500000,470.000000 
	C268.641327,471.104645 274.834717,470.390167 281.000458,470.460114 
	C292.998901,470.596283 305.000000,470.500000 317.250000,470.500000 
	C317.250000,487.166656 317.250000,503.833344 317.250000,521.000000 
	C278.666656,521.000000 240.333328,521.000000 201.750000,521.000000 
	C201.750000,504.003357 201.750000,487.501678 201.750000,470.500000 
	C212.995163,470.500000 224.498779,470.601746 235.999603,470.466736 
	C244.666260,470.364990 253.350937,471.082336 262.000000,470.000000 
"/>
<path fill="none" opacity="1.000000" stroke="#000000" stroke-linecap="round" stroke-linejoin="round" stroke-width="3.000000"
	d="
M548.000000,84.000000 
	C505.166656,84.000000 462.333344,84.000000 419.500000,84.000000 
"/>
<path fill="none" opacity="1.000000" stroke="#000000" stroke-linecap="round" stroke-linejoin="round" stroke-width="2.000000"
	d="
M103.500000,465.500000 
	C103.500000,475.333344 103.500000,485.166656 103.500000,495.500000 
	C135.998291,495.500000 168.499146,495.500000 201.000000,495.500000 
"/>
<path fill="none" opacity="1.000000" stroke="#000000" stroke-linecap="round" stroke-linejoin="round" stroke-width="2.000000"
	d="
M242.500000,601.500000 
	C202.500000,601.500000 162.499985,601.509766 122.500038,601.465759 
	C120.843422,601.463928 119.077461,602.058716 117.500000,601.000000 
"/>
<path fill="none" opacity="1.000000" stroke="#000000" stroke-linecap="round" stroke-linejoin="round" stroke-width="2.000000"
	d="
M400.000000,398.500000 
	C401.058685,396.922546 400.461121,395.156860 400.465057,393.499908 
	C400.517426,371.500031 400.552826,349.499725 400.444336,327.500275 
	C400.427582,324.108002 400.880920,322.400116 405.000214,322.410675 
	C457.833221,322.545929 510.666656,322.498779 563.500000,322.513000 
	C564.182190,322.513184 564.999329,322.169403 566.000000,323.850891 
	C566.000000,333.161194 566.000000,343.330597 566.000000,353.500000 
	C566.000000,367.000000 565.981201,380.500061 566.022217,393.999939 
	C566.027832,395.833771 566.333374,397.666656 566.500000,399.500000 
"/>
<path fill="none" opacity="1.000000" stroke="#000000" stroke-linecap="round" stroke-linejoin="round" stroke-width="2.000000"
	d="
M310.500000,98.500000 
	C346.166656,98.500000 381.833344,98.500000 417.500000,98.500000 
"/>
<path fill="none" opacity="1.000000" stroke="#000000" stroke-linecap="round" stroke-linejoin="round" stroke-width="2.000000"
	d="
M117.000000,601.500000 
	C115.834534,611.817200 116.800529,622.168457 116.516983,632.500488 
	C116.411865,636.330872 116.500000,640.166687 116.500000,644.500000 
	C158.665344,644.500000 200.832672,644.500000 243.250000,644.500000 
	C243.250000,621.002380 243.250000,597.501160 243.250000,573.500000 
	C201.334656,573.500000 159.167328,573.500000 116.437874,573.500000 
	C116.843819,582.666687 115.866074,591.833313 117.000000,601.000000 
"/>
<path fill="none" opacity="1.000000" stroke="#000000" stroke-linecap="round" stroke-linejoin="round" stroke-width="2.000000"
	d="
M588.500000,404.500000 
	C588.649353,402.955994 588.570190,401.498322 586.500061,401.512177 
	C579.923645,401.556183 573.663147,398.576111 566.500000,399.706970 
	C566.500000,407.304993 566.500000,415.152496 566.500000,422.790863 
	C564.227417,423.835022 562.338257,423.483673 560.500000,423.485382 
	C536.833313,423.507538 513.166626,423.483765 489.500061,423.534851 
	C487.843201,423.538422 486.077454,422.941315 484.500000,424.000000 
"/>
<path fill="none" opacity="1.000000" stroke="#000000" stroke-linecap="round" stroke-linejoin="round" stroke-width="2.000000"
	d="
M400.000000,400.500000 
	C401.172119,407.977661 400.074432,415.505768 400.639771,423.500000 
	C402.321869,423.500000 404.160919,423.500000 406.000000,423.500000 
	C429.833344,423.500000 453.666687,423.483856 477.499939,423.534821 
	C479.156799,423.538361 480.922546,422.941315 482.500000,424.000000 
"/>
<path fill="none" opacity="1.000000" stroke="#000000" stroke-linecap="round" stroke-linejoin="round" stroke-width="2.000000"
	d="
M261.500000,231.000000 
	C260.646179,229.956192 259.487183,230.532043 258.499969,230.530869 
	C226.833344,230.493347 195.166656,230.493347 163.500031,230.530884 
	C162.512802,230.532043 161.353806,229.956192 160.500000,231.000000 
"/>
<path fill="none" opacity="1.000000" stroke="#000000" stroke-linecap="round" stroke-linejoin="round" stroke-width="2.000000"
	d="
M737.500000,523.000000 
	C732.195862,521.898193 726.831238,522.594482 721.499573,522.540955 
	C708.834167,522.413757 696.166687,522.509583 683.500000,522.489807 
	C681.591980,522.486816 679.698120,522.423035 678.000000,523.500000 
"/>
<path fill="none" opacity="1.000000" stroke="#000000" stroke-linecap="round" stroke-linejoin="round" stroke-width="2.000000"
	d="
M487.500000,157.500000 
	C484.089478,162.496445 483.266815,168.003189 483.408813,174.002151 
	C483.708466,186.661743 483.500000,199.333328 483.500000,212.000000 
"/>
<path fill="none" opacity="1.000000" stroke="#000000" stroke-linecap="round" stroke-linejoin="round" stroke-width="2.000000"
	d="
M483.000000,647.500000 
	C484.138184,660.320740 483.189240,673.168518 483.500000,686.000000 
"/>
<path fill="none" opacity="1.000000" stroke="#000000" stroke-linecap="round" stroke-linejoin="round" stroke-width="2.000000"
	d="
M328.500000,435.500000 
	C316.500000,441.500000 304.500000,447.500000 292.500000,453.500000 
"/>
<path fill="none" opacity="1.000000" stroke="#000000" stroke-linecap="round" stroke-linejoin="round" stroke-width="2.000000"
	d="
M482.500000,284.500000 
	C483.863953,285.960541 483.490601,287.777252 483.492859,289.500000 
	C483.506989,300.333344 483.500000,311.166656 483.500000,322.000000 
"/>
<path fill="none" opacity="1.000000" stroke="#000000" stroke-linecap="round" stroke-linejoin="round" stroke-width="2.000000"
	d="
M786.000000,647.500000 
	C787.124329,657.317078 786.190063,667.169067 786.500000,677.000000 
"/>
<path fill="none" opacity="1.000000" stroke="#000000" stroke-linecap="round" stroke-linejoin="round" stroke-width="2.000000"
	d="
M483.500000,544.000000 
	C483.500000,553.666687 483.500000,563.333313 483.500000,573.000000 
"/>
<path fill="none" opacity="1.000000" stroke="#000000" stroke-linecap="round" stroke-linejoin="round" stroke-width="2.000000"
	d="
M380.000000,409.500000 
	C370.500000,414.166687 361.000000,418.833344 351.500000,423.500000 
"/>
<path fill="none" opacity="1.000000" stroke="#000000" stroke-linecap="round" stroke-linejoin="round" stroke-width="2.000000"
	d="
M399.000000,399.500000 
	C391.848206,399.058258 385.045074,401.545227 377.769287,401.790741 
	C378.939056,406.675934 381.839874,410.410187 383.175812,413.896301 
	C388.521912,409.201447 393.760895,404.600677 398.999908,399.999908 
"/>
<path fill="none" opacity="1.000000" stroke="#000000" stroke-linecap="round" stroke-linejoin="round" stroke-width="2.000000"
	d="
M242.500000,185.500000 
	C240.666672,183.693390 238.632004,183.960205 237.063736,185.562393 
	C235.810226,186.842987 235.797607,188.640884 236.438080,190.521088 
	C237.201797,192.763092 238.833420,192.418411 240.498245,192.526825 
	C242.103058,192.631332 243.335815,191.953384 243.417114,190.495377 
	C243.515900,188.723419 242.026031,188.377609 240.500000,188.500000 
"/>
<path fill="none" opacity="1.000000" stroke="#000000" stroke-linecap="round" stroke-linejoin="round" stroke-width="2.000000"
	d="
M177.499985,651.500000 
	C175.850464,656.672119 174.200943,661.844299 172.397202,667.500000 
	C177.333328,667.500000 182.166672,667.500000 187.040085,667.500000 
	C186.820404,664.759399 185.099014,662.874573 185.500000,660.500000 
"/>
<path fill="none" opacity="1.000000" stroke="#000000" stroke-linecap="round" stroke-linejoin="round" stroke-width="2.000000"
	d="
M483.500000,447.500000 
	C483.500000,454.666656 483.500000,461.833344 483.500000,469.000000 
"/>
<path fill="none" opacity="1.000000" stroke="#000000" stroke-linecap="round" stroke-linejoin="round" stroke-width="2.000000"
	d="
M50.500000,19.000000 
	C50.708027,21.452730 52.144512,22.920923 54.473953,22.386475 
	C56.103565,22.012594 57.534508,20.717793 57.543293,18.500172 
	C57.551167,16.511765 56.766075,15.099315 54.987400,14.540075 
	C51.539577,13.456033 50.835594,16.127829 50.000000,18.500000 
"/>
<path fill="none" opacity="1.000000" stroke="#000000" stroke-linecap="round" stroke-linejoin="round" stroke-width="2.000000"
	d="
M483.000000,521.500000 
	C480.577972,528.302612 478.155975,535.105225 475.539459,542.454102 
	C480.583374,543.499207 485.321838,542.837769 490.001343,542.936035 
	C490.157410,542.939331 490.333313,542.000000 490.500000,541.500000 
"/>
<path fill="none" opacity="1.000000" stroke="#000000" stroke-linecap="round" stroke-linejoin="round" stroke-width="2.000000"
	d="
M187.500000,611.500000 
	C185.927017,610.396545 184.261398,610.219421 182.810150,610.583435 
	C180.714188,615.799377 189.285812,613.200623 187.193771,618.406799 
	C185.339584,618.141663 182.807739,619.769043 181.500000,616.500000 
"/>
<path fill="none" opacity="1.000000" stroke="#000000" stroke-linecap="round" stroke-linejoin="round" stroke-width="2.000000"
	d="
M785.999939,625.500000 
	C783.577881,632.302612 781.155823,639.105164 778.430237,646.760376 
	C783.834534,645.867920 788.744324,647.918823 793.500000,645.500000 
"/>
<path fill="none" opacity="1.000000" stroke="#000000" stroke-linecap="round" stroke-linejoin="round" stroke-width="2.000000"
	d="
M116.500000,308.500000 
	C113.872040,307.523804 113.872040,307.523804 111.475334,309.520538 
	C112.825264,311.823364 116.140793,310.734833 117.500000,313.000000 
	C114.897736,316.297363 114.861343,316.300385 111.500000,313.500000 
"/>
<path fill="none" opacity="1.000000" stroke="#000000" stroke-linecap="round" stroke-linejoin="round" stroke-width="2.000000"
	d="
M596.500000,414.499969 
	C603.166687,417.833313 609.833313,421.166656 616.500000,424.499969 
"/>
<path fill="none" opacity="1.000000" stroke="#000000" stroke-linecap="round" stroke-linejoin="round" stroke-width="2.000000"
	d="
M179.500000,668.500000 
	C179.500000,675.000000 179.500000,681.500000 179.500000,688.000000 
"/>
<path fill="none" opacity="1.000000" stroke="#000000" stroke-linecap="round" stroke-linejoin="round" stroke-width="2.000000"
	d="
M484.500000,629.500000 
	C484.239044,628.312683 485.324249,626.740662 482.983673,626.025391 
	C479.762482,632.202576 478.417542,639.302429 475.516052,646.746216 
	C480.834534,645.867920 485.744324,647.918823 490.500000,645.500000 
"/>
<path fill="none" opacity="1.000000" stroke="#000000" stroke-linecap="round" stroke-linejoin="round" stroke-width="2.000000"
	d="
M627.500000,430.500000 
	C633.500000,433.500000 639.500000,436.500000 645.500000,439.500000 
"/>
<path fill="none" opacity="1.000000" stroke="#000000" stroke-linecap="round" stroke-linejoin="round" stroke-width="2.000000"
	d="
M701.000000,501.000000 
	C699.060974,500.182831 697.355530,500.066589 696.405457,502.646393 
	C697.167969,504.832062 701.022461,503.977509 701.040649,507.786316 
	C698.993835,508.734497 697.070557,509.557465 695.500000,506.500000 
"/>
<path fill="none" opacity="1.000000" stroke="#000000" stroke-linecap="round" stroke-linejoin="round" stroke-width="2.000000"
	d="
M658.500000,446.500000 
	C664.500000,449.500000 670.500000,452.500000 676.500000,455.500000 
"/>
<path fill="none" opacity="1.000000" stroke="#000000" stroke-linecap="round" stroke-linejoin="round" stroke-width="2.000000"
	d="
M687.500000,461.500000 
	C693.241211,464.836395 699.786743,466.691071 705.000000,471.000000 
"/>
<path fill="none" opacity="1.000000" stroke="#000000" stroke-linecap="round" stroke-linejoin="round" stroke-width="3.000000"
	d="
M477.500000,332.500000 
	C476.666656,332.000000 475.888306,331.296844 474.985748,331.052612 
	C473.912811,330.762238 472.515259,330.743500 472.061768,332.021912 
	C471.680298,333.097321 471.967804,334.249359 473.498260,334.510254 
	C475.447723,334.842529 476.854126,336.298401 475.862091,337.915405 
	C474.808899,339.632141 472.666656,339.340393 471.000000,338.000000 
"/>
<path fill="none" opacity="1.000000" stroke="#000000" stroke-linecap="round" stroke-linejoin="round" stroke-width="2.000000"
	d="
M253.500000,499.500000 
	C251.558411,498.475861 249.632935,497.628876 247.827667,499.681396 
	C248.457123,502.506561 251.453690,502.156281 252.619843,504.210602 
	C251.408005,507.218262 249.414017,507.129181 247.000000,505.500000 
"/>
<path fill="none" opacity="1.000000" stroke="#000000" stroke-linecap="round" stroke-linejoin="round" stroke-width="2.000000"
	d="
M753.500000,540.000000 
	C759.166687,545.833313 764.833313,551.666687 770.500000,557.500000 
"/>
<path fill="none" opacity="1.000000" stroke="#000000" stroke-linecap="round" stroke-linejoin="round" stroke-width="2.000000"
	d="
M280.500000,241.500000 
	C280.962402,240.807724 281.424805,240.115463 282.109039,239.091049 
	C276.731842,236.096741 270.717224,234.385391 265.000000,232.000000 
"/>
<path fill="none" opacity="1.000000" stroke="#000000" stroke-linecap="round" stroke-linejoin="round" stroke-width="2.000000"
	d="
M679.500000,728.500000 
	C678.166687,726.858948 676.437012,726.681946 675.604187,728.546570 
	C674.647766,730.688232 676.628723,730.623840 677.997192,730.474365 
	C679.799255,730.277527 679.899841,731.673279 679.423523,732.453308 
	C678.331726,734.241760 676.833313,734.141052 675.500000,732.500000 
"/>
<path fill="none" opacity="1.000000" stroke="#000000" stroke-linecap="round" stroke-linejoin="round" stroke-width="2.000000"
	d="
M156.000000,231.500000 
	C151.333328,233.166656 146.691132,234.908630 141.980057,236.438599 
	C140.997894,236.757568 140.164642,236.830627 140.000000,238.000000 
"/>
<path fill="none" opacity="1.000000" stroke="#000000" stroke-linecap="round" stroke-linejoin="round" stroke-width="2.000000"
	d="
M149.500000,168.500000 
	C145.032425,169.053314 144.671051,169.930969 146.000183,177.001648 
	C147.500244,176.835526 149.000122,176.667770 150.500000,176.500000 
"/>
<path fill="none" opacity="1.000000" stroke="#000000" stroke-linecap="round" stroke-linejoin="round" stroke-width="2.000000"
	d="
M115.500000,353.500000 
	C111.032433,354.053314 110.671043,354.930969 112.023193,362.123352 
	C113.512215,361.916016 115.006104,361.708008 116.500000,361.500000 
"/>
<path fill="none" opacity="1.000000" stroke="#000000" stroke-linecap="round" stroke-linejoin="round" stroke-width="2.000000"
	d="
M59.500000,353.500000 
	C54.993374,354.058167 54.993374,354.058167 56.000000,361.500153 
	C57.500000,363.030121 59.000000,361.070831 60.500000,361.500000 
"/>
<path fill="none" opacity="1.000000" stroke="#000000" stroke-linecap="round" stroke-linejoin="round" stroke-width="3.000000"
	d="
M204.500000,714.500000 
	C204.333328,713.166687 203.985153,711.824890 204.046478,710.502136 
	C204.121231,708.889648 203.411407,708.482849 202.000000,708.482849 
	C200.588593,708.482849 199.878784,708.889648 199.953537,710.502136 
	C200.014862,711.824890 199.666656,713.166687 199.500000,714.500000 
"/>
<path fill="none" opacity="1.000000" stroke="#000000" stroke-linecap="round" stroke-linejoin="round" stroke-width="2.000000"
	d="
M484.000000,425.500000 
	C485.350769,430.544769 487.895569,435.231323 488.500000,440.500000 
"/>
<path fill="none" opacity="1.000000" stroke="#000000" stroke-linecap="round" stroke-linejoin="round" stroke-width="2.000000"
	d="
M771.000000,692.500000 
	C771.000000,694.339050 771.000000,696.178162 771.000000,697.986816 
	C775.500000,698.105347 775.500000,698.105347 775.500000,692.500000 
"/>
<path fill="none" opacity="1.000000" stroke="#000000" stroke-linecap="round" stroke-linejoin="round" stroke-width="2.000000"
	d="
M666.000000,602.500000 
	C666.000000,600.660950 666.000000,598.821838 666.000000,597.013184 
	C661.500000,596.894653 661.500000,596.894653 661.500000,602.500000 
"/>
<path fill="none" opacity="1.000000" stroke="#000000" stroke-linecap="round" stroke-linejoin="round" stroke-width="3.000000"
	d="
M513.500000,241.500000 
	C513.333313,240.333328 512.983337,239.157471 513.041260,238.002075 
	C513.137756,236.079819 512.420288,235.378326 510.498413,235.465134 
	C508.505524,235.555145 509.051147,236.918106 509.010010,238.000381 
	C508.965698,239.165375 509.000000,240.333328 509.000000,241.500000 
"/>
<path fill="none" opacity="1.000000" stroke="#000000" stroke-linecap="round" stroke-linejoin="round" stroke-width="2.000000"
	d="
M451.500000,132.500000 
	C452.458221,130.666672 451.960175,128.833328 451.433197,126.997681 
	C447.671814,126.866989 447.671814,126.866989 447.500000,132.500000 
"/>
<path fill="none" opacity="1.000000" stroke="#000000" stroke-linecap="round" stroke-linejoin="round" stroke-width="2.000000"
	d="
M194.500031,558.500000 
	C190.000031,563.166687 185.500031,567.833374 181.000031,572.500000 
"/>
<path fill="none" opacity="1.000000" stroke="#000000" stroke-linecap="round" stroke-linejoin="round" stroke-width="2.000000"
	d="
M284.500000,491.500000 
	C284.183197,489.512512 286.540283,486.204407 283.954926,485.765503 
	C280.236206,485.134155 280.534424,488.839539 280.500000,491.500000 
"/>
<path fill="none" opacity="1.000000" stroke="#000000" stroke-linecap="round" stroke-linejoin="round" stroke-width="2.000000"
	d="
M782.500000,714.500000 
	C782.500000,713.833313 782.514160,713.166321 782.497253,712.500061 
	C782.451111,710.679504 783.012268,708.475647 780.000000,708.498840 
	C776.707397,708.524170 778.416748,711.045227 778.012451,712.503479 
	C777.926636,712.812988 778.000000,713.166687 778.000000,713.500000 
"/>
<path fill="none" opacity="1.000000" stroke="#000000" stroke-linecap="round" stroke-linejoin="round" stroke-width="3.000000"
	d="
M230.500000,69.500000 
	C230.874023,67.454941 232.231659,64.138283 229.956177,63.772903 
	C226.222778,63.173424 226.534424,66.839523 226.500000,69.500000 
"/>
<path fill="none" opacity="1.000000" stroke="#000000" stroke-linecap="round" stroke-linejoin="round" stroke-width="2.000000"
	d="
M782.500000,602.500000 
	C782.074951,600.419434 783.810852,596.838501 780.491821,596.708374 
	C776.694641,596.559448 778.383850,600.312744 778.000000,602.500000 
"/>
<path fill="none" opacity="1.000000" stroke="#000000" stroke-linecap="round" stroke-linejoin="round" stroke-width="2.000000"
	d="
M37.500000,403.500000 
	C36.333332,401.740570 35.194103,402.240997 33.991684,403.492004 
	C32.957756,404.567688 33.341278,405.965424 33.619083,406.966980 
	C33.898819,407.975464 35.142441,409.092651 36.475258,408.448792 
	C37.960739,407.731201 40.069618,407.703949 40.500000,405.500000 
"/>
<path fill="none" opacity="1.000000" stroke="#000000" stroke-linecap="round" stroke-linejoin="round" stroke-width="2.000000"
	d="
M248.500000,155.500000 
	C248.072952,157.931442 250.098038,161.793304 245.004303,161.502335 
	C243.741150,160.018433 244.031815,158.226974 244.000000,156.500000 
"/>
<path fill="none" opacity="1.000000" stroke="#000000" stroke-linecap="round" stroke-linejoin="round" stroke-width="2.000000"
	d="
M501.500000,389.500000 
	C499.666656,388.552826 497.833344,387.605957 495.997955,389.433228 
	C495.969574,393.277954 500.360046,391.652557 501.500000,394.000000 
	C498.897736,397.297363 498.861328,397.300385 495.500000,394.500000 
"/>
<path fill="none" opacity="1.000000" stroke="#000000" stroke-linecap="round" stroke-linejoin="round" stroke-width="2.000000"
	d="
M714.500000,493.500000 
	C714.183228,491.512512 716.595886,488.503143 713.938416,487.705139 
	C710.576660,486.695770 711.284241,490.794067 710.000000,492.500000 
"/>
<path fill="none" opacity="1.000000" stroke="#000000" stroke-linecap="round" stroke-linejoin="round" stroke-width="3.000000"
	d="
M146.500000,415.500000 
	C144.379745,418.038055 144.379745,423.961945 146.500000,426.500000 
"/>
<path fill="none" opacity="1.000000" stroke="#000000" stroke-linecap="round" stroke-linejoin="round" stroke-width="2.000000"
	d="
M767.500000,692.500000 
	C765.833313,689.240051 764.166687,689.964478 762.137207,692.545532 
	C763.720520,694.675964 767.283630,693.630798 767.892578,696.611938 
	C765.833313,699.952332 763.666687,698.360168 761.500000,696.500000 
"/>
<path fill="none" opacity="1.000000" stroke="#000000" stroke-linecap="round" stroke-linejoin="round" stroke-width="2.000000"
	d="
M621.500000,597.500000 
	C620.000000,596.810913 618.210022,595.287598 617.114136,597.555176 
	C616.504700,598.816223 616.598999,600.868774 618.030823,601.959534 
	C619.780701,603.292480 620.830200,602.159363 621.500000,600.500000 
"/>
<path fill="none" opacity="1.000000" stroke="#000000" stroke-linecap="round" stroke-linejoin="round" stroke-width="2.000000"
	d="
M135.500000,145.500000 
	C135.500000,144.666672 135.514282,143.833038 135.497131,143.000061 
	C135.456482,141.026001 134.303848,140.383896 132.499771,140.496414 
	C130.251389,140.636673 131.164886,142.347076 131.015335,143.501984 
	C130.930435,144.157669 131.000000,144.833328 131.000000,145.500000 
"/>
<path fill="none" opacity="1.000000" stroke="#000000" stroke-linecap="round" stroke-linejoin="round" stroke-width="3.000000"
	d="
M223.500000,610.500000 
	C225.628281,613.047668 225.628281,618.166687 223.500000,621.500000 
"/>
<path fill="none" opacity="1.000000" stroke="#000000" stroke-linecap="round" stroke-linejoin="round" stroke-width="3.000000"
	d="
M166.000000,633.500000 
	C165.868439,631.997559 165.736893,630.495117 165.606293,629.003723 
	C162.000000,628.878418 162.000000,628.878418 162.000000,633.500000 
"/>
<path fill="none" opacity="1.000000" stroke="#000000" stroke-linecap="round" stroke-linejoin="round" stroke-width="3.000000"
	d="
M423.000031,411.500000 
	C422.868469,409.997559 422.736938,408.495087 422.606354,407.003693 
	C419.000000,406.878387 419.000000,406.878387 419.000000,411.500000 
"/>
<path fill="none" opacity="1.000000" stroke="#000000" stroke-linecap="round" stroke-linejoin="round" stroke-width="2.000000"
	d="
M766.500000,597.500000 
	C765.333313,595.740540 764.130005,596.183777 763.011780,597.509949 
	C762.138611,598.545532 762.194641,598.630432 763.999756,602.499756 
	C765.446838,602.600220 766.241638,601.885376 766.500000,600.500000 
"/>
<path fill="none" opacity="1.000000" stroke="#000000" stroke-linecap="round" stroke-linejoin="round" stroke-width="2.000000"
	d="
M222.499985,525.499939 
	C218.433090,527.536682 214.366196,529.573425 210.085403,531.717285 
	C210.764038,534.522095 213.667160,534.932922 214.841431,537.348999 
	C211.077118,541.382019 207.288544,545.440979 203.499985,549.500000 
"/>
<path fill="none" opacity="1.000000" stroke="#000000" stroke-linecap="round" stroke-linejoin="round" stroke-width="3.000000"
	d="
M148.000000,114.500000 
	C148.000000,113.500000 147.948334,112.496742 148.011063,111.500694 
	C148.131241,109.592194 146.958282,109.469391 145.499863,109.479774 
	C143.500458,109.494019 144.062485,110.918228 144.008286,112.000412 
	C143.966675,112.831665 144.000000,113.666664 144.000000,114.500000 
"/>
<path fill="none" opacity="1.000000" stroke="#000000" stroke-linecap="round" stroke-linejoin="round" stroke-width="2.000000"
	d="
M475.000000,603.000000 
	C473.500000,601.446533 472.000000,601.583008 470.425476,602.972534 
	C470.752747,606.431824 474.889526,605.116516 476.098511,607.776184 
	C474.419281,611.641968 471.932922,609.897400 469.500000,608.500000 
"/>
<path fill="none" opacity="1.000000" stroke="#000000" stroke-linecap="round" stroke-linejoin="round" stroke-width="2.000000"
	d="
M18.500000,17.500000 
	C17.333334,17.224754 16.127863,15.304987 15.014754,17.507456 
	C14.361556,18.799915 14.265495,20.270130 15.035594,21.477293 
	C16.409063,23.630270 18.000000,22.189093 19.500000,21.500000 
"/>
<path fill="none" opacity="1.000000" stroke="#000000" stroke-linecap="round" stroke-linejoin="round" stroke-width="2.000000"
	d="
M799.500000,693.500000 
	C797.734985,692.640869 795.950378,692.595154 795.097473,694.542664 
	C794.695557,695.460388 794.954712,697.123169 795.579407,697.939209 
	C796.850098,699.599182 798.202698,697.955017 799.500000,697.500000 
"/>
<path fill="none" opacity="1.000000" stroke="#000000" stroke-linecap="round" stroke-linejoin="round" stroke-width="2.000000"
	d="
M476.500000,499.500000 
	C475.091980,496.746948 473.244873,498.384460 471.493591,498.341034 
	C471.414612,502.085388 474.952606,501.547394 475.999939,503.500061 
	C473.827332,506.253052 473.827332,506.253052 470.500000,504.500000 
"/>
<path fill="none" opacity="1.000000" stroke="#000000" stroke-linecap="round" stroke-linejoin="round" stroke-width="3.000000"
	d="
M146.500000,431.500000 
	C144.340530,434.085022 144.340530,438.914978 146.500000,441.500000 
"/>
<path fill="none" opacity="1.000000" stroke="#000000" stroke-linecap="round" stroke-linejoin="round" stroke-width="2.000000"
	d="
M26.000010,449.000000 
	C25.500010,449.333344 24.746189,449.565063 24.562098,450.024872 
	C24.313330,450.646271 24.384678,451.319550 25.485407,451.565338 
	C26.630777,451.821136 27.659813,452.597900 29.617184,453.592896 
	C27.166666,454.485992 25.833334,455.507172 24.500000,453.500000 
"/>
<path fill="none" opacity="1.000000" stroke="#000000" stroke-linecap="round" stroke-linejoin="round" stroke-width="3.000000"
	d="
M160.000000,707.000000 
	C158.227432,706.107605 156.415222,704.818848 155.014847,707.882324 
	C155.094498,709.072144 156.897812,709.831116 157.502472,709.840454 
	C159.946106,709.878296 160.694336,711.472595 159.837234,712.902466 
	C159.136871,714.070862 157.015045,715.060974 155.481705,713.013672 
	C155.281952,712.746948 154.833328,712.666687 154.500000,712.500000 
"/>
<path fill="none" opacity="1.000000" stroke="#000000" stroke-linecap="round" stroke-linejoin="round" stroke-width="2.000000"
	d="
M739.500000,523.500000 
	C737.259094,524.154297 738.582153,525.397705 738.998230,526.500671 
	C740.027039,529.227966 742.142029,531.479492 742.500000,534.500000 
"/>
<path fill="none" opacity="1.000000" stroke="#000000" stroke-linecap="round" stroke-linejoin="round" stroke-width="2.000000"
	d="
M726.000000,488.000000 
	C724.774780,487.756653 723.359070,486.497620 722.515625,488.506561 
	C721.865234,490.055817 721.265564,491.854706 723.048157,492.919403 
	C723.954956,493.461060 725.290161,493.039154 725.500000,491.500000 
"/>
<path fill="none" opacity="1.000000" stroke="#000000" stroke-linecap="round" stroke-linejoin="round" stroke-width="3.000000"
	d="
M484.500000,339.500000 
	C484.188416,336.725952 488.883942,337.138275 487.889221,333.972229 
	C486.765320,333.690643 485.421448,332.616852 484.500000,334.500000 
"/>
<path fill="none" opacity="1.000000" stroke="#000000" stroke-linecap="round" stroke-linejoin="round" stroke-width="2.000000"
	d="
M182.500000,585.500000 
	C180.735001,584.640869 178.950394,584.595154 178.097458,586.542664 
	C177.695557,587.460388 177.990189,589.063843 178.582092,589.944824 
	C179.425995,591.200928 180.833328,590.408569 182.000000,590.000000 
"/>
<path fill="none" opacity="1.000000" stroke="#000000" stroke-linecap="round" stroke-linejoin="round" stroke-width="2.000000"
	d="
M180.000000,645.500000 
	C181.020844,649.213074 183.575577,652.438049 183.500000,656.500000 
"/>
<path fill="none" opacity="1.000000" stroke="#000000" stroke-linecap="round" stroke-linejoin="round" stroke-width="2.000000"
	d="
M479.499969,434.500000 
	C478.321625,438.329742 477.143311,442.159485 475.807800,446.500000 
	C480.488251,446.500000 484.994141,446.511230 489.499969,446.493927 
	C491.078430,446.487854 490.314423,445.240540 490.500000,444.500000 
"/>
<path fill="none" opacity="1.000000" stroke="#000000" stroke-linecap="round" stroke-linejoin="round" stroke-width="2.000000"
	d="
M483.000000,264.500000 
	C481.166656,268.166656 479.333344,271.833344 477.500000,275.500000 
"/>
<path fill="none" opacity="1.000000" stroke="#000000" stroke-linecap="round" stroke-linejoin="round" stroke-width="2.000000"
	d="
M130.500000,160.000000 
	C132.498611,160.064163 134.908340,160.529678 134.942932,157.499344 
	C134.973190,154.847702 133.237808,155.157639 131.508453,156.017029 
	C131.442032,156.050034 131.500000,156.333328 131.500000,156.500000 
"/>
<path fill="none" opacity="1.000000" stroke="#000000" stroke-linecap="round" stroke-linejoin="round" stroke-width="3.000000"
	d="
M693.500000,489.000000 
	C691.459473,489.096802 689.118591,488.367767 687.981689,491.039673 
	C688.904236,493.287201 690.520752,493.437714 692.500000,492.500000 
"/>
<path fill="none" opacity="1.000000" stroke="#000000" stroke-linecap="round" stroke-linejoin="round" stroke-width="2.000000"
	d="
M27.500000,376.000000 
	C29.498606,376.064148 31.908346,376.529694 31.942940,373.499359 
	C31.973209,370.847687 30.237814,371.157654 28.508461,372.017029 
	C28.442038,372.050018 28.500000,372.333344 28.500000,372.500000 
"/>
<path fill="none" opacity="1.000000" stroke="#000000" stroke-linecap="round" stroke-linejoin="round" stroke-width="3.000000"
	d="
M610.500000,724.500000 
	C612.603699,727.018250 612.603699,730.981750 610.500000,733.500000 
"/>
<path fill="none" opacity="1.000000" stroke="#000000" stroke-linecap="round" stroke-linejoin="round" stroke-width="2.000000"
	d="
M24.500000,21.500000 
	C26.029583,21.523335 27.648273,21.505684 28.448826,19.973267 
	C28.893425,19.122219 29.610863,18.133995 28.535545,16.967241 
	C27.079596,15.387487 26.555693,17.667488 25.500000,17.500000 
"/>
<path fill="none" opacity="1.000000" stroke="#000000" stroke-linecap="round" stroke-linejoin="round" stroke-width="2.000000"
	d="
M483.999969,264.500000 
	C485.166656,267.000000 485.995300,269.749634 487.601715,271.924866 
	C489.011322,273.833557 488.524414,275.601624 488.500000,277.500000 
"/>
<path fill="none" opacity="1.000000" stroke="#000000" stroke-linecap="round" stroke-linejoin="round" stroke-width="2.000000"
	d="
M163.500000,327.000000 
	C161.735001,326.140839 160.092804,326.148499 159.054947,328.030304 
	C158.789536,328.511566 158.935532,329.313995 159.449173,330.036163 
	C160.720886,331.824249 161.985519,331.782440 163.500000,330.500000 
"/>
<path fill="none" opacity="1.000000" stroke="#000000" stroke-linecap="round" stroke-linejoin="round" stroke-width="2.000000"
	d="
M72.500000,21.000000 
	C73.822533,20.623463 75.646423,21.953075 76.462852,19.984592 
	C76.840134,19.074928 77.610863,18.133995 76.535545,16.967239 
	C75.079597,15.387486 74.555695,17.667488 73.500000,17.500000 
"/>
<path fill="none" opacity="1.000000" stroke="#000000" stroke-linecap="round" stroke-linejoin="round" stroke-width="2.000000"
	d="
M97.500000,21.000000 
	C98.822533,20.623463 100.646431,21.953077 101.462860,19.984596 
	C101.840141,19.074930 102.610863,18.133989 101.535545,16.967237 
	C100.079597,15.387481 99.555695,17.667488 98.500000,17.500000 
"/>
<path fill="none" opacity="1.000000" stroke="#000000" stroke-linecap="round" stroke-linejoin="round" stroke-width="2.000000"
	d="
M280.500000,202.500000 
	C279.145844,202.500000 277.791656,202.500000 276.384521,202.500000 
	C276.621948,205.551117 279.939850,204.449677 280.627289,206.922195 
	C279.166656,207.730423 277.833344,208.441910 276.500000,206.500000 
"/>
<path fill="none" opacity="1.000000" stroke="#000000" stroke-linecap="round" stroke-linejoin="round" stroke-width="2.000000"
	d="
M466.500000,111.500000 
	C465.104309,111.583900 463.532288,110.962456 462.376190,112.182076 
	C463.069305,114.518715 466.162750,113.171890 466.567871,115.955086 
	C465.166656,116.730423 463.833344,117.441902 462.500000,115.500000 
"/>
<path fill="none" opacity="1.000000" stroke="#000000" stroke-linecap="round" stroke-linejoin="round" stroke-width="2.000000"
	d="
M164.500000,145.000000 
	C167.015381,144.803192 166.976395,142.690628 167.676147,140.885620 
	C166.109024,140.705521 164.608383,139.533722 163.500000,141.500000 
"/>
<path fill="none" opacity="1.000000" stroke="#000000" stroke-linecap="round" stroke-linejoin="round" stroke-width="2.000000"
	d="
M124.500000,144.000000 
	C125.500000,144.006332 126.643616,145.406631 127.444870,143.969269 
	C127.907959,143.138519 128.797394,141.941620 127.487183,141.018188 
	C126.410728,140.259491 125.249352,139.829453 124.500000,141.500000 
"/>
<path fill="none" opacity="1.000000" stroke="#000000" stroke-linecap="round" stroke-linejoin="round" stroke-width="2.000000"
	d="
M441.500000,411.000000 
	C444.015381,410.803192 443.976410,408.690643 444.676147,406.885620 
	C443.109009,406.705505 441.608368,405.533722 440.500000,407.500000 
"/>
<path fill="none" opacity="1.000000" stroke="#000000" stroke-linecap="round" stroke-linejoin="round" stroke-width="2.000000"
	d="
M508.500000,589.500000 
	C506.913025,589.442017 504.753693,586.808228 503.915222,590.337769 
	C504.828491,592.141113 507.424530,590.954102 507.832245,593.604492 
	C507.155579,595.289001 505.552185,594.542114 504.000000,594.000000 
"/>
<path fill="none" opacity="1.000000" stroke="#000000" stroke-linecap="round" stroke-linejoin="round" stroke-width="2.000000"
	d="
M172.000000,110.000000 
	C170.676682,109.778740 169.353348,109.557472 167.500000,109.247581 
	C167.500000,111.486252 167.500000,113.493126 167.500000,115.500000 
"/>
<path fill="none" opacity="1.000000" stroke="#000000" stroke-linecap="round" stroke-linejoin="round" stroke-width="2.000000"
	d="
M161.500000,114.500000 
	C163.312134,113.541428 164.332092,112.054726 164.542740,109.870285 
	C163.109024,109.705521 161.608383,108.533722 160.500000,110.500000 
"/>
<path fill="none" opacity="1.000000" stroke="#000000" stroke-linecap="round" stroke-linejoin="round" stroke-width="2.000000"
	d="
M522.500000,111.500000 
	C521.146851,111.500000 519.793701,111.500000 518.384521,111.500000 
	C518.621948,114.551117 521.939880,113.449677 522.627319,115.922195 
	C521.166687,116.730423 519.833313,117.441902 518.500000,115.500000 
"/>
<path fill="none" opacity="1.000000" stroke="#000000" stroke-linecap="round" stroke-linejoin="round" stroke-width="2.000000"
	d="
M200.500000,202.500000 
	C199.146072,202.500000 197.792145,202.500000 196.384537,202.500000 
	C196.621933,205.551117 199.939865,204.449677 200.627304,206.922195 
	C199.166672,207.730423 197.833328,208.441910 196.500000,206.500000 
"/>
<path fill="none" opacity="1.000000" stroke="#000000" stroke-linecap="round" stroke-linejoin="round" stroke-width="2.000000"
	d="
M409.500000,391.500000 
	C407.509155,393.382416 408.166504,395.388733 410.066589,396.371246 
	C411.606873,397.167694 413.599548,396.072723 414.432739,394.465149 
	C415.390320,392.617523 416.706360,392.246063 418.500000,392.500000 
"/>
<path fill="none" opacity="1.000000" stroke="#000000" stroke-linecap="round" stroke-linejoin="round" stroke-width="2.000000"
	d="
M590.500000,727.500000 
	C592.510986,729.028320 590.973938,731.201721 591.728394,733.265686 
	C592.541443,734.043213 593.849365,733.221069 595.730469,733.725586 
	C594.942444,731.490906 596.630737,729.336304 594.500000,727.500000 
"/>
<path fill="none" opacity="1.000000" stroke="#000000" stroke-linecap="round" stroke-linejoin="round" stroke-width="3.000000"
	d="
M801.500000,697.000000 
	C802.666687,697.000000 804.048767,697.378967 804.930481,696.877747 
	C805.612000,696.490295 806.186035,694.798950 805.892822,694.041504 
	C805.264404,692.418091 803.772034,692.929016 802.500000,693.500000 
"/>
<path fill="none" opacity="1.000000" stroke="#000000" stroke-linecap="round" stroke-linejoin="round" stroke-width="2.000000"
	d="
M655.500000,601.000000 
	C657.653503,600.776306 658.597229,599.109497 657.883179,597.553589 
	C656.836731,595.273193 655.000000,596.810913 653.500000,597.500000 
"/>
<path fill="none" opacity="1.000000" stroke="#000000" stroke-linecap="round" stroke-linejoin="round" stroke-width="2.000000"
	d="
M70.500000,403.500000 
	C69.500000,402.000092 68.150131,401.877625 67.573296,403.525665 
	C66.396057,406.889038 70.788948,404.385101 71.036652,406.902191 
	C70.395851,408.802155 69.319450,409.451416 67.500000,407.500000 
"/>
<path fill="none" opacity="1.000000" stroke="#000000" stroke-linecap="round" stroke-linejoin="round" stroke-width="2.000000"
	d="
M153.000000,326.000000 
	C148.500000,325.409851 148.500000,325.409851 148.500000,331.500000 
"/>
<path fill="none" opacity="1.000000" stroke="#000000" stroke-linecap="round" stroke-linejoin="round" stroke-width="2.000000"
	d="
M247.000000,176.000000 
	C248.583405,174.463577 248.583405,174.463577 249.548035,171.870895 
	C248.109024,171.705521 246.608383,170.533722 245.500000,172.500000 
"/>
<path fill="none" opacity="1.000000" stroke="#000000" stroke-linecap="round" stroke-linejoin="round" stroke-width="2.000000"
	d="
M168.500000,172.500000 
	C166.321564,172.319595 164.381180,173.032883 165.152527,175.451355 
	C165.629745,176.947586 167.422226,178.766632 169.500000,176.500000 
"/>
<path fill="none" opacity="1.000000" stroke="#000000" stroke-linecap="round" stroke-linejoin="round" stroke-width="2.000000"
	d="
M766.500000,709.500000 
	C765.333313,707.740540 764.162415,708.210815 763.001221,709.501099 
	C761.955994,710.662415 762.362427,711.994019 763.045776,712.967896 
	C764.667908,715.279907 766.061707,713.222229 767.500000,712.500000 
"/>
<path fill="none" opacity="1.000000" stroke="#000000" stroke-linecap="round" stroke-linejoin="round" stroke-width="2.000000"
	d="
M45.500000,362.500000 
	C44.020317,360.691071 44.589855,358.540588 44.497902,356.500366 
	C43.333332,356.500000 42.166668,356.500000 40.500000,356.500000 
	C40.500000,358.486237 40.500000,360.493134 40.500000,362.500000 
"/>
<path fill="none" opacity="1.000000" stroke="#000000" stroke-linecap="round" stroke-linejoin="round" stroke-width="2.000000"
	d="
M258.500000,490.000000 
	C260.210846,489.377502 262.664062,489.052002 261.872803,486.540070 
	C261.399139,485.036407 259.666656,484.740570 258.500000,486.500000 
"/>
<path fill="none" opacity="1.000000" stroke="#000000" stroke-linecap="round" stroke-linejoin="round" stroke-width="2.000000"
	d="
M26.000000,392.000000 
	C28.022804,391.410095 28.011869,389.549072 28.753384,387.894501 
	C27.109022,387.705505 25.608383,386.533722 24.500000,388.500000 
"/>
<path fill="none" opacity="1.000000" stroke="#000000" stroke-linecap="round" stroke-linejoin="round" stroke-width="2.000000"
	d="
M143.500000,373.500000 
	C141.155289,372.143921 139.684662,373.538269 139.632034,375.503540 
	C139.569992,377.819977 141.827332,377.511993 143.500000,377.500000 
"/>
<path fill="none" opacity="1.000000" stroke="#000000" stroke-linecap="round" stroke-linejoin="round" stroke-width="2.000000"
	d="
M339.500000,597.500000 
	C338.000000,596.817200 336.500000,595.415100 334.999878,597.504028 
	C335.322754,599.847473 338.098389,598.924377 339.095581,600.666199 
	C338.190002,603.938293 336.249878,602.291138 334.500000,601.500000 
"/>
<path fill="none" opacity="1.000000" stroke="#000000" stroke-linecap="round" stroke-linejoin="round" stroke-width="2.000000"
	d="
M457.500000,407.500000 
	C455.109131,407.109131 454.101990,408.391266 454.561432,410.486542 
	C455.108215,412.980194 456.728394,412.919769 458.500000,411.500000 
"/>
<path fill="none" opacity="1.000000" stroke="#000000" stroke-linecap="round" stroke-linejoin="round" stroke-width="2.000000"
	d="
M820.500000,597.500000 
	C819.000000,596.817200 817.500000,595.415100 815.999878,597.504028 
	C816.322754,599.847473 819.098389,598.924377 820.095581,600.666199 
	C819.190002,603.938293 817.249878,602.291138 815.500000,601.500000 
"/>
<path fill="none" opacity="1.000000" stroke="#000000" stroke-linecap="round" stroke-linejoin="round" stroke-width="2.000000"
	d="
M36.500000,17.500000 
	C35.070019,16.911728 33.312485,15.177035 32.946102,18.400608 
	C33.827721,20.142317 36.426239,18.951353 36.839607,21.661657 
	C35.683922,22.821976 34.205788,23.185421 32.500000,21.500000 
"/>
<path fill="none" opacity="1.000000" stroke="#000000" stroke-linecap="round" stroke-linejoin="round" stroke-width="2.000000"
	d="
M181.500000,111.500000 
	C179.030624,109.886917 177.861328,112.140915 178.209045,113.444229 
	C178.602722,114.919830 180.422226,116.766624 182.500000,114.500000 
"/>
<path fill="none" opacity="1.000000" stroke="#000000" stroke-linecap="round" stroke-linejoin="round" stroke-width="3.000000"
	d="
M456.500000,586.500000 
	C454.816681,586.500000 453.133331,586.500000 451.000000,586.500000 
	C451.000000,589.477783 451.000000,591.988892 451.000000,594.500000 
"/>
<path fill="none" opacity="1.000000" stroke="#000000" stroke-linecap="round" stroke-linejoin="round" stroke-width="2.000000"
	d="
M134.000000,171.500000 
	C133.000000,171.500000 132.000000,171.500000 130.500000,171.500000 
	C130.500000,173.486252 130.500000,175.493118 130.500000,177.500000 
"/>
<path fill="none" opacity="1.000000" stroke="#000000" stroke-linecap="round" stroke-linejoin="round" stroke-width="2.000000"
	d="
M501.500000,591.000000 
	C500.349609,590.619019 499.199219,590.238037 498.057068,589.859741 
	C497.475494,591.288574 496.194916,592.564697 497.520813,593.980469 
	C498.965363,595.523071 500.202698,593.955017 501.500000,593.500000 
"/>
<path fill="none" opacity="1.000000" stroke="#000000" stroke-linecap="round" stroke-linejoin="round" stroke-width="2.000000"
	d="
M43.500000,17.500000 
	C42.066074,16.897924 40.315506,15.187608 39.946312,18.392506 
	C40.825790,20.145405 43.427895,18.948700 43.830399,21.609083 
	C43.155579,23.288979 41.552193,22.542107 40.000000,22.000000 
"/>
<path fill="none" opacity="1.000000" stroke="#000000" stroke-linecap="round" stroke-linejoin="round" stroke-width="2.000000"
	d="
M771.000000,708.500000 
	C772.000000,708.500000 773.000000,708.500000 774.500000,708.500000 
	C774.500000,710.486267 774.500000,712.493103 774.500000,714.500000 
"/>
<path fill="none" opacity="1.000000" stroke="#000000" stroke-linecap="round" stroke-linejoin="round" stroke-width="2.000000"
	d="
M487.000000,108.500000 
	C485.954102,112.134659 490.061676,113.514679 490.500000,116.500000 
"/>
<path fill="none" opacity="1.000000" stroke="#000000" stroke-linecap="round" stroke-linejoin="round" stroke-width="2.000000"
	d="
M484.000000,609.000000 
	C485.806396,608.271484 487.112762,607.167908 487.000000,605.000000 
	C485.765320,604.690613 484.421448,603.616882 483.500000,605.500000 
"/>
<path fill="none" opacity="1.000000" stroke="#000000" stroke-linecap="round" stroke-linejoin="round" stroke-width="3.000000"
	d="
M474.500000,240.500000 
	C476.458496,239.625092 477.719116,237.919098 476.865906,236.061584 
	C476.144348,234.490662 474.639557,236.143600 473.500000,236.500000 
"/>
<path fill="none" opacity="1.000000" stroke="#000000" stroke-linecap="round" stroke-linejoin="round" stroke-width="3.000000"
	d="
M487.500000,241.500000 
	C484.398102,240.311737 487.096741,237.189972 485.529053,235.530731 
	C480.843719,235.132797 480.645905,238.109421 481.000000,241.500000 
"/>
<path fill="none" opacity="1.000000" stroke="#000000" stroke-linecap="round" stroke-linejoin="round" stroke-width="2.000000"
	d="
M292.500000,486.500000 
	C291.333344,484.751251 290.166656,485.210754 288.998962,486.500488 
	C289.077393,488.770813 291.991272,487.732391 292.568359,489.470673 
	C291.378937,492.561279 289.150635,490.086487 287.500000,490.500000 
"/>
<path fill="none" opacity="1.000000" stroke="#000000" stroke-linecap="round" stroke-linejoin="round" stroke-width="3.000000"
	d="
M187.000000,710.000000 
	C185.083939,709.734070 183.742325,711.099182 184.148788,712.455383 
	C184.742477,714.436462 186.735001,714.359131 188.500000,713.500000 
"/>
<path fill="none" opacity="1.000000" stroke="#000000" stroke-linecap="round" stroke-linejoin="round" stroke-width="2.000000"
	d="
M116.500000,322.500000 
	C113.398354,322.398346 110.194641,322.194641 112.000000,327.000000 
"/>
<path fill="none" opacity="1.000000" stroke="#000000" stroke-linecap="round" stroke-linejoin="round" stroke-width="2.000000"
	d="
M774.500000,602.500000 
	C774.074951,600.419434 775.810852,596.838501 772.491821,596.708374 
	C768.694641,596.559448 770.383850,600.312744 770.000000,602.500000 
"/>
<path fill="none" opacity="1.000000" stroke="#000000" stroke-linecap="round" stroke-linejoin="round" stroke-width="2.000000"
	d="
M608.000000,733.500000 
	C608.000000,731.660950 608.000000,729.821838 608.000000,727.500000 
	C604.514465,727.500000 601.507202,727.500000 598.500000,727.500000 
"/>
<path fill="none" opacity="1.000000" stroke="#000000" stroke-linecap="round" stroke-linejoin="round" stroke-width="2.000000"
	d="
M175.500000,115.500000 
	C175.500000,113.493126 175.500000,111.486252 175.500000,109.519279 
	C169.960663,109.240944 171.885040,113.044052 171.500000,115.500000 
"/>
<path fill="none" opacity="1.000000" stroke="#000000" stroke-linecap="round" stroke-linejoin="round" stroke-width="2.000000"
	d="
M248.500000,223.500000 
	C248.500000,221.493118 248.500000,219.486252 248.500000,217.519287 
	C242.960663,217.240936 244.885040,221.044052 244.500000,223.500000 
"/>
<path fill="none" opacity="1.000000" stroke="#000000" stroke-linecap="round" stroke-linejoin="round" stroke-width="2.000000"
	d="
M515.500000,706.500000 
	C514.019287,705.734070 512.755188,705.726501 511.863464,707.219666 
	C512.812012,709.167480 514.962769,708.692932 516.271301,710.228210 
	C514.683899,711.821960 513.205811,712.185425 511.500000,710.500000 
"/>
<path fill="none" opacity="1.000000" stroke="#000000" stroke-linecap="round" stroke-linejoin="round" stroke-width="3.000000"
	d="
M819.500000,708.999939 
	C818.846313,709.205017 818.192688,709.410034 817.464294,709.638550 
	C816.942322,711.660278 820.315979,711.012390 820.006104,712.972168 
	C818.734070,715.273560 816.969055,713.055054 815.500000,713.500000 
"/>
<path fill="none" opacity="1.000000" stroke="#000000" stroke-linecap="round" stroke-linejoin="round" stroke-width="2.000000"
	d="
M498.000000,241.500000 
	C498.000000,240.166672 498.187897,238.800781 497.963623,237.506302 
	C497.368469,234.070831 495.890381,235.600586 494.500000,237.000000 
"/>
<path fill="none" opacity="1.000000" stroke="#000000" stroke-linecap="round" stroke-linejoin="round" stroke-width="2.000000"
	d="
M629.000000,602.500000 
	C628.247986,600.528442 630.763977,596.808044 626.993958,596.683044 
	C623.037048,596.551880 624.970764,600.348938 624.500000,602.500000 
"/>
<path fill="none" opacity="1.000000" stroke="#000000" stroke-linecap="round" stroke-linejoin="round" stroke-width="2.000000"
	d="
M49.500000,356.500000 
	C55.085979,356.207001 51.457001,360.521484 52.500000,362.500000 
"/>
<path fill="none" opacity="1.000000" stroke="#000000" stroke-linecap="round" stroke-linejoin="round" stroke-width="2.000000"
	d="
M146.500000,207.500000 
	C146.314255,202.555664 146.314255,202.555664 138.000000,203.028427 
	C138.000000,204.463089 138.000000,205.981537 138.000000,207.500000 
"/>
<path fill="none" opacity="1.000000" stroke="#000000" stroke-linecap="round" stroke-linejoin="round" stroke-width="2.000000"
	d="
M437.500000,132.500000 
	C437.500000,130.493118 437.500000,128.486252 437.500000,126.519279 
	C431.960663,126.240944 433.885040,130.044052 433.500000,132.500000 
"/>
<path fill="none" opacity="1.000000" stroke="#000000" stroke-linecap="round" stroke-linejoin="round" stroke-width="2.000000"
	d="
M249.500000,188.500000 
	C247.256790,186.573654 247.395706,190.999664 245.415878,188.927231 
	C245.585129,192.830475 247.643784,192.503281 249.500000,192.500000 
"/>
<path fill="none" opacity="1.000000" stroke="#000000" stroke-linecap="round" stroke-linejoin="round" stroke-width="3.000000"
	d="
M126.000000,22.500000 
	C126.000000,21.333334 126.138832,20.146429 125.972313,19.004036 
	C125.573746,16.269751 124.202293,16.458630 122.500000,18.000000 
"/>
<path fill="none" opacity="1.000000" stroke="#000000" stroke-linecap="round" stroke-linejoin="round" stroke-width="2.000000"
	d="
M494.000000,126.500000 
	C498.359283,127.030853 496.922394,129.976776 496.500000,132.500000 
"/>
<path fill="none" opacity="1.000000" stroke="#000000" stroke-linecap="round" stroke-linejoin="round" stroke-width="2.000000"
	d="
M760.500000,599.000000 
	C758.508972,598.466003 756.304016,596.755554 754.966431,600.084961 
	C755.992981,602.020996 757.204346,603.386963 759.500000,601.500000 
"/>
<path fill="none" opacity="1.000000" stroke="#000000" stroke-linecap="round" stroke-linejoin="round" stroke-width="2.000000"
	d="
M122.000000,392.000000 
	C124.049240,391.426605 123.905060,389.482330 124.671432,388.164490 
	C123.641281,386.985657 122.489174,387.731659 121.500000,387.500000 
"/>
<path fill="none" opacity="1.000000" stroke="#000000" stroke-linecap="round" stroke-linejoin="round" stroke-width="2.000000"
	d="
M62.500000,342.500000 
	C62.000000,341.814026 61.639713,342.083344 60.965347,342.433197 
	C60.084118,342.890320 59.055950,343.037689 58.465015,344.060577 
	C58.585121,346.830475 60.643780,346.503296 62.500000,346.500000 
"/>
<path fill="none" opacity="1.000000" stroke="#000000" stroke-linecap="round" stroke-linejoin="round" stroke-width="2.000000"
	d="
M345.500000,598.500000 
	C343.474213,596.995361 342.999146,599.109131 341.946655,600.047546 
	C342.993011,602.020996 344.204346,603.386963 346.500000,601.500000 
"/>
<path fill="none" opacity="1.000000" stroke="#000000" stroke-linecap="round" stroke-linejoin="round" stroke-width="2.000000"
	d="
M488.500000,485.500000 
	C487.333344,485.224762 485.917572,483.232330 485.068329,485.525299 
	C484.175293,487.936462 487.900238,487.491486 488.014191,489.620483 
	C486.500000,490.762604 485.000000,491.299896 483.500000,489.500000 
"/>
<path fill="none" opacity="1.000000" stroke="#000000" stroke-linecap="round" stroke-linejoin="round" stroke-width="2.000000"
	d="
M110.500000,284.500000 
	C108.591736,284.295105 106.476967,284.434784 107.097855,286.976105 
	C107.868614,290.130829 109.912567,288.120209 111.500000,287.500000 
"/>
<path fill="none" opacity="1.000000" stroke="#000000" stroke-linecap="round" stroke-linejoin="round" stroke-width="2.000000"
	d="
M156.000000,176.000000 
	C158.022202,175.409714 158.014114,173.550491 158.645279,172.134552 
	C157.641281,170.985657 156.489166,171.731644 155.500000,171.500000 
"/>
<path fill="none" opacity="1.000000" stroke="#000000" stroke-linecap="round" stroke-linejoin="round" stroke-width="2.000000"
	d="
M706.500000,493.500000 
	C706.385742,491.666656 707.756714,489.833344 706.426208,487.605042 
	C702.505127,487.005127 703.285034,490.785034 702.000000,492.500000 
"/>
<path fill="none" opacity="1.000000" stroke="#000000" stroke-linecap="round" stroke-linejoin="round" stroke-width="2.000000"
	d="
M122.000000,361.000000 
	C124.048149,360.425934 123.911163,358.486145 124.680397,357.174744 
	C123.641281,355.985657 122.489174,356.731659 121.500000,356.500000 
"/>
<path fill="none" opacity="1.000000" stroke="#000000" stroke-linecap="round" stroke-linejoin="round" stroke-width="2.000000"
	d="
M504.500000,237.500000 
	C502.474213,235.995377 501.999146,238.109146 500.946655,239.047577 
	C501.993011,241.020966 503.204346,242.386932 505.500000,240.500000 
"/>
<path fill="none" opacity="1.000000" stroke="#000000" stroke-linecap="round" stroke-linejoin="round" stroke-width="2.000000"
	d="
M290.000000,522.000000 
	C288.937286,524.812561 291.677979,526.864380 291.500000,529.500000 
"/>
<path fill="none" opacity="1.000000" stroke="#000000" stroke-linecap="round" stroke-linejoin="round" stroke-width="3.000000"
	d="
M730.000000,492.000000 
	C731.776611,491.499023 733.807129,490.837036 732.893127,488.542572 
	C732.291443,487.032135 730.666687,486.740570 729.500000,488.500000 
"/>
<path fill="none" opacity="1.000000" stroke="#000000" stroke-linecap="round" stroke-linejoin="round" stroke-width="3.000000"
	d="
M65.500000,417.500000 
	C65.500000,419.833344 65.500000,422.166656 65.500000,424.500000 
"/>
<path fill="none" opacity="1.000000" stroke="#000000" stroke-linecap="round" stroke-linejoin="round" stroke-width="2.000000"
	d="
M128.000000,207.500000 
	C127.868439,205.997559 127.736877,204.495102 127.605865,202.998932 
	C123.667595,203.038818 123.667595,203.038818 123.500000,207.500000 
"/>
<path fill="none" opacity="1.000000" stroke="#000000" stroke-linecap="round" stroke-linejoin="round" stroke-width="2.000000"
	d="
M269.500000,465.500000 
	C267.000000,466.833344 264.500000,468.166687 262.000000,469.500000 
"/>
<path fill="none" opacity="1.000000" stroke="#000000" stroke-linecap="round" stroke-linejoin="round" stroke-width="2.000000"
	d="
M568.000000,399.999969 
	C570.166687,402.499969 572.333374,404.999969 574.500000,407.499969 
"/>
<path fill="none" opacity="1.000000" stroke="#000000" stroke-linecap="round" stroke-linejoin="round" stroke-width="2.000000"
	d="
M156.500000,330.500000 
	C156.500000,328.816681 156.500000,327.133331 156.500000,325.519287 
	C150.960663,325.240936 152.885040,329.044037 152.500000,331.500000 
"/>
<path fill="none" opacity="1.000000" stroke="#000000" stroke-linecap="round" stroke-linejoin="round" stroke-width="2.000000"
	d="
M458.500000,707.500000 
	C456.591736,707.295105 454.600525,707.388428 455.074890,709.986328 
	C455.533630,712.498352 457.458252,711.500366 459.000000,711.000000 
"/>
<path fill="none" opacity="1.000000" stroke="#000000" stroke-linecap="round" stroke-linejoin="round" stroke-width="4.000000"
	d="
M444.500000,483.500000 
	C444.722992,486.859528 440.583496,487.198822 440.000000,490.000000 
"/>
<path fill="none" opacity="1.000000" stroke="#000000" stroke-linecap="round" stroke-linejoin="round" stroke-width="2.000000"
	d="
M702.000000,732.500000 
	C702.817505,733.573669 703.720337,734.779175 702.460876,735.958191 
	C701.519775,736.839355 700.249329,737.170532 699.500000,735.500000 
"/>
<path fill="none" opacity="1.000000" stroke="#000000" stroke-linecap="round" stroke-linejoin="round" stroke-width="2.000000"
	d="
M180.000000,712.500000 
	C180.817490,713.573669 181.670898,714.717834 180.479294,715.980469 
	C179.410919,717.112488 178.166672,716.408569 177.000000,716.000000 
"/>
<path fill="none" opacity="1.000000" stroke="#000000" stroke-linecap="round" stroke-linejoin="round" stroke-width="3.000000"
	d="
M452.000000,484.500000 
	C452.369080,487.177094 451.965149,489.177826 448.500000,488.500000 
"/>
<path fill="none" opacity="1.000000" stroke="#000000" stroke-linecap="round" stroke-linejoin="round" stroke-width="3.000000"
	d="
M69.000000,21.500000 
	C69.211548,22.324356 70.688942,22.768740 69.530167,24.027763 
	C68.235489,25.434431 66.929840,25.105381 65.500000,24.500000 
"/>
<path fill="none" opacity="1.000000" stroke="#000000" stroke-linecap="round" stroke-linejoin="round" stroke-width="3.000000"
	d="
M604.000000,595.500000 
	C604.198242,597.831055 603.521912,600.224609 604.500000,602.500000 
"/>
<path fill="none" opacity="1.000000" stroke="#000000" stroke-linecap="round" stroke-linejoin="round" stroke-width="2.000000"
	d="
M88.000000,423.500000 
	C88.108482,421.744965 87.990044,420.035339 87.171104,418.518982 
	C82.788338,418.035156 83.562202,421.060211 83.500000,423.500000 
"/>
<path fill="none" opacity="1.000000" stroke="#000000" stroke-linecap="round" stroke-linejoin="round" stroke-width="3.000000"
	d="
M750.000000,595.500000 
	C750.000000,597.833313 750.000000,600.166687 750.000000,602.500000 
"/>
<path fill="none" opacity="1.000000" stroke="#000000" stroke-linecap="round" stroke-linejoin="round" stroke-width="3.000000"
	d="
M173.000000,584.500000 
	C173.000000,585.666687 173.000000,586.833313 173.000000,588.000000 
	C171.833328,588.000000 170.666672,588.000000 169.500000,588.000000 
"/>
<path fill="none" opacity="1.000000" stroke="#000000" stroke-linecap="round" stroke-linejoin="round" stroke-width="2.000000"
	d="
M97.000000,22.000000 
	C95.333336,22.997686 93.666664,22.503685 90.352989,21.502405 
	C92.707565,20.378325 94.292450,19.621698 95.533058,19.029428 
	C94.169380,16.490494 92.728264,17.117746 91.500000,17.000000 
"/>
<path fill="none" opacity="1.000000" stroke="#000000" stroke-linecap="round" stroke-linejoin="round" stroke-width="2.000000"
	d="
M152.500000,109.000000 
	C154.166672,111.166664 155.833328,113.333336 157.500000,115.500000 
"/>
<path fill="none" opacity="1.000000" stroke="#000000" stroke-linecap="round" stroke-linejoin="round" stroke-width="2.000000"
	d="
M91.500000,283.500000 
	C93.000458,283.662537 94.686119,282.158295 95.987518,284.096008 
	C96.255562,286.588898 94.246643,286.913300 92.500000,287.500000 
"/>
<path fill="none" opacity="1.000000" stroke="#000000" stroke-linecap="round" stroke-linejoin="round" stroke-width="2.000000"
	d="
M700.500000,488.500000 
	C699.436462,488.357239 698.827271,486.989624 697.494263,487.484589 
	C695.525513,488.215454 694.898743,489.818665 695.572510,491.470428 
	C696.633240,494.070892 698.166687,493.036865 699.500000,491.500000 
"/>
<path fill="none" opacity="1.000000" stroke="#000000" stroke-linecap="round" stroke-linejoin="round" stroke-width="2.000000"
	d="
M788.000000,698.500000 
	C788.300964,703.218872 785.272949,700.447388 783.500000,700.500000 
"/>
<path fill="none" opacity="1.000000" stroke="#000000" stroke-linecap="round" stroke-linejoin="round" stroke-width="2.000000"
	d="
M54.000000,405.500000 
	C54.103031,408.868988 55.059505,409.294098 58.500000,407.500000 
"/>
<path fill="none" opacity="1.000000" stroke="#000000" stroke-linecap="round" stroke-linejoin="round" stroke-width="3.000000"
	d="
M318.000000,600.000000 
	C315.631226,599.702148 316.366577,596.300110 313.734558,595.958069 
	C312.558929,598.068665 312.780090,600.265137 313.500000,602.500000 
"/>
<path fill="none" opacity="1.000000" stroke="#000000" stroke-linecap="round" stroke-linejoin="round" stroke-width="3.000000"
	d="
M263.000000,153.500000 
	C262.833496,155.666672 263.442780,157.893036 262.500000,160.000000 
"/>
<path fill="none" opacity="1.000000" stroke="#000000" stroke-linecap="round" stroke-linejoin="round" stroke-width="2.000000"
	d="
M683.500000,486.000000 
	C682.496216,488.050415 683.655029,490.599884 682.000000,492.500000 
"/>
<path fill="none" opacity="1.000000" stroke="#000000" stroke-linecap="round" stroke-linejoin="round" stroke-width="2.000000"
	d="
M499.500000,67.500000 
	C501.036224,67.670265 503.373505,65.955177 503.864227,68.525917 
	C504.209991,70.337372 502.611938,71.602821 500.500000,71.500000 
"/>
<path fill="none" opacity="1.000000" stroke="#000000" stroke-linecap="round" stroke-linejoin="round" stroke-width="2.000000"
	d="
M149.000000,158.500000 
	C149.103027,161.869003 150.059509,162.294098 153.500000,160.500000 
"/>
<path fill="none" opacity="1.000000" stroke="#000000" stroke-linecap="round" stroke-linejoin="round" stroke-width="2.000000"
	d="
M140.000000,419.500000 
	C142.016296,420.264709 140.722672,422.206573 141.395584,423.552216 
	C142.894226,426.549133 140.599854,426.599854 138.500000,426.500000 
"/>
<path fill="none" opacity="1.000000" stroke="#000000" stroke-linecap="round" stroke-linejoin="round" stroke-width="2.000000"
	d="
M266.500000,203.500000 
	C264.321564,203.319595 262.298737,204.085663 263.173370,206.435471 
	C263.764160,208.022766 266.000000,208.622726 267.500000,206.500000 
"/>
<path fill="none" opacity="1.000000" stroke="#000000" stroke-linecap="round" stroke-linejoin="round" stroke-width="3.000000"
	d="
M517.000000,233.500000 
	C517.859009,236.099350 515.203857,239.357605 518.500000,241.500000 
"/>
<path fill="none" opacity="1.000000" stroke="#000000" stroke-linecap="round" stroke-linejoin="round" stroke-width="2.000000"
	d="
M59.000000,436.500000 
	C59.103031,439.868988 60.059509,440.294098 63.500000,438.500000 
"/>
<path fill="none" opacity="1.000000" stroke="#000000" stroke-linecap="round" stroke-linejoin="round" stroke-width="2.000000"
	d="
M610.000000,599.500000 
	C610.104919,602.930847 610.340698,603.035645 614.500000,601.500000 
"/>
<path fill="none" opacity="1.000000" stroke="#000000" stroke-linecap="round" stroke-linejoin="round" stroke-width="2.000000"
	d="
M149.000000,189.500000 
	C149.103027,192.869003 150.059509,193.294098 153.500000,191.500000 
"/>
<path fill="none" opacity="1.000000" stroke="#000000" stroke-linecap="round" stroke-linejoin="round" stroke-width="2.000000"
	d="
M455.000000,129.500000 
	C455.103027,132.869003 456.059509,133.294098 459.500000,131.500000 
"/>
<path fill="none" opacity="1.000000" stroke="#000000" stroke-linecap="round" stroke-linejoin="round" stroke-width="3.000000"
	d="
M750.000000,707.000000 
	C750.000000,709.166687 750.000000,711.333313 750.000000,713.500000 
"/>
<path fill="none" opacity="1.000000" stroke="#000000" stroke-linecap="round" stroke-linejoin="round" stroke-width="3.000000"
	d="
M160.500000,137.500000 
	C160.189911,139.669937 159.879837,141.839874 159.571014,144.000992 
	C156.598816,144.243011 157.810638,139.858871 155.000000,140.000000 
"/>
<path fill="none" opacity="1.000000" stroke="#000000" stroke-linecap="round" stroke-linejoin="round" stroke-width="2.000000"
	d="
M164.500000,122.500000 
	C164.336670,124.666924 164.929367,126.892006 164.001038,129.026123 
	C161.465927,128.263992 161.582153,125.142731 159.500000,124.000000 
"/>
<path fill="none" opacity="1.000000" stroke="#000000" stroke-linecap="round" stroke-linejoin="round" stroke-width="2.000000"
	d="
M149.000000,220.500000 
	C149.103027,223.869003 150.059509,224.294098 153.500000,222.500000 
"/>
<path fill="none" opacity="1.000000" stroke="#000000" stroke-linecap="round" stroke-linejoin="round" stroke-width="2.000000"
	d="
M41.500000,387.500000 
	C39.827332,387.488007 38.031086,387.175537 37.489017,389.497437 
	C37.147228,390.961487 38.092350,391.739807 39.010952,392.486511 
	C40.584663,393.765686 41.526009,392.507690 42.500000,391.500000 
"/>
<path fill="none" opacity="1.000000" stroke="#000000" stroke-linecap="round" stroke-linejoin="round" stroke-width="2.000000"
	d="
M58.500004,418.500000 
	C57.666668,418.666687 56.833336,418.833344 56.000000,419.000000 
	C57.018497,422.933319 53.446800,422.735443 51.500000,424.000000 
"/>
<path fill="none" opacity="1.000000" stroke="#000000" stroke-linecap="round" stroke-linejoin="round" stroke-width="3.000000"
	d="
M106.500000,14.500000 
	C106.503014,17.207956 104.326881,20.188307 107.500000,22.500000 
"/>
<path fill="none" opacity="1.000000" stroke="#000000" stroke-linecap="round" stroke-linejoin="round" stroke-width="2.000000"
	d="
M504.000000,487.500000 
	C504.174316,484.035675 503.806671,483.825592 500.500000,485.500000 
"/>
<path fill="none" opacity="1.000000" stroke="#000000" stroke-linecap="round" stroke-linejoin="round" stroke-width="2.000000"
	d="
M138.000000,454.500000 
	C139.534103,456.122467 137.734451,456.832947 136.925934,457.393097 
	C136.507950,457.682587 134.742203,458.311157 134.500000,456.500000 
"/>
<path fill="none" opacity="1.000000" stroke="#000000" stroke-linecap="round" stroke-linejoin="round" stroke-width="2.000000"
	d="
M31.500000,388.500000 
	C31.678419,393.796631 31.895298,393.914917 37.000000,391.500000 
"/>
<path fill="none" opacity="1.000000" stroke="#000000" stroke-linecap="round" stroke-linejoin="round" stroke-width="2.000000"
	d="
M159.000015,122.500000 
	C158.833344,125.166664 158.666672,127.833336 158.500015,130.500000 
"/>
<path fill="none" opacity="1.000000" stroke="#000000" stroke-linecap="round" stroke-linejoin="round" stroke-width="2.000000"
	d="
M212.000000,618.500000 
	C213.534103,620.122498 211.734497,620.833069 210.925980,621.393127 
	C210.507935,621.682617 208.742203,622.311157 208.500000,620.500000 
"/>
<path fill="none" opacity="1.000000" stroke="#000000" stroke-linecap="round" stroke-linejoin="round" stroke-width="2.000000"
	d="
M188.500000,126.500000 
	C185.904877,125.904884 184.680069,127.200905 185.614044,129.452698 
	C186.390488,131.324692 188.166672,131.141022 189.500000,129.500000 
"/>
<path fill="none" opacity="1.000000" stroke="#000000" stroke-linecap="round" stroke-linejoin="round" stroke-width="3.000000"
	d="
M257.500000,155.500000 
	C256.450775,157.426453 257.233612,159.505585 257.000000,161.500000 
"/>
<path fill="none" opacity="1.000000" stroke="#000000" stroke-linecap="round" stroke-linejoin="round" stroke-width="2.000000"
	d="
M151.500000,106.500000 
	C152.443512,109.500000 151.023056,112.500000 151.500000,115.500000 
"/>
<path fill="none" opacity="1.000000" stroke="#000000" stroke-linecap="round" stroke-linejoin="round" stroke-width="3.000000"
	d="
M480.500000,586.500000 
	C480.503021,589.207947 478.326874,592.188293 481.500000,594.500000 
"/>
<path fill="none" opacity="1.000000" stroke="#000000" stroke-linecap="round" stroke-linejoin="round" stroke-width="2.000000"
	d="
M157.500000,106.500000 
	C157.266373,108.494423 158.049225,110.573547 157.000000,112.500000 
"/>
<path fill="none" opacity="1.000000" stroke="#000000" stroke-linecap="round" stroke-linejoin="round" stroke-width="2.000000"
	d="
M466.500000,706.500000 
	C465.070160,705.894592 463.419678,705.354248 462.598328,707.047668 
	C462.159149,707.953125 461.984558,709.436523 462.994110,710.505554 
	C464.185760,711.767273 465.333344,712.259460 466.500000,710.500000 
"/>
<path fill="none" opacity="1.000000" stroke="#000000" stroke-linecap="round" stroke-linejoin="round" stroke-width="2.000000"
	d="
M740.500000,524.000000 
	C742.120972,525.816467 744.516052,526.305847 746.500000,527.500000 
"/>
<path fill="none" opacity="1.000000" stroke="#000000" stroke-linecap="round" stroke-linejoin="round" stroke-width="2.000000"
	d="
M474.500000,708.000000 
	C474.000000,707.833313 473.422089,707.774902 473.013641,707.481018 
	C471.367096,706.295959 470.563354,707.588989 469.474396,708.468262 
	C468.270569,709.440430 470.035889,710.166687 469.500000,711.000000 
	C470.906525,711.418762 472.386566,712.425903 473.500000,710.500000 
"/>
<path fill="none" opacity="1.000000" stroke="#000000" stroke-linecap="round" stroke-linejoin="round" stroke-width="2.000000"
	d="
M523.000000,487.500000 
	C521.465881,489.122467 523.265503,489.832977 524.074097,490.393097 
	C524.492004,490.682617 526.257812,491.311157 526.500000,489.500000 
"/>
<path fill="none" opacity="1.000000" stroke="#000000" stroke-linecap="round" stroke-linejoin="round" stroke-width="2.000000"
	d="
M134.500000,169.500000 
	C134.762177,172.175568 133.763306,175.008759 135.500000,177.500000 
"/>
<path fill="none" opacity="1.000000" stroke="#000000" stroke-linecap="round" stroke-linejoin="round" stroke-width="2.000000"
	d="
M494.500000,497.500000 
	C493.042328,497.386230 492.108368,497.618866 491.932739,499.493713 
	C491.711792,501.853149 490.999969,504.166656 490.499969,506.500000 
"/>
<path fill="none" opacity="1.000000" stroke="#000000" stroke-linecap="round" stroke-linejoin="round" stroke-width="3.000000"
	d="
M319.000000,594.500000 
	C319.635071,597.166687 317.622437,599.833313 319.000000,602.500000 
"/>
<path fill="none" opacity="1.000000" stroke="#000000" stroke-linecap="round" stroke-linejoin="round" stroke-width="2.000000"
	d="
M48.500000,353.500000 
	C48.500000,356.500000 48.500000,359.500000 48.500000,362.500000 
"/>
<path fill="none" opacity="1.000000" stroke="#000000" stroke-linecap="round" stroke-linejoin="round" stroke-width="2.000000"
	d="
M284.000000,158.500000 
	C282.894226,162.151169 285.547241,161.417099 287.500000,161.500000 
"/>
<path fill="none" opacity="1.000000" stroke="#000000" stroke-linecap="round" stroke-linejoin="round" stroke-width="3.000000"
	d="
M485.000000,707.000000 
	C485.506287,708.497925 483.616486,710.794495 486.500000,711.500000 
"/>
<path fill="none" opacity="1.000000" stroke="#000000" stroke-linecap="round" stroke-linejoin="round" stroke-width="2.000000"
	d="
M647.000000,597.000000 
	C644.754089,595.777954 643.987854,596.933105 643.455994,598.988586 
	C643.011292,600.707458 643.881287,601.902893 645.043396,602.398132 
	C646.272339,602.921875 647.114685,601.726685 647.500000,600.500000 
"/>
<path fill="none" opacity="1.000000" stroke="#000000" stroke-linecap="round" stroke-linejoin="round" stroke-width="3.000000"
	d="
M493.000000,124.500000 
	C492.929016,127.172646 493.394318,129.878815 492.500000,132.500000 
"/>
<path fill="none" opacity="1.000000" stroke="#000000" stroke-linecap="round" stroke-linejoin="round" stroke-width="2.000000"
	d="
M526.000000,411.500000 
	C526.268616,414.252502 525.979858,414.500000 522.500000,414.500000 
"/>
<path fill="none" opacity="1.000000" stroke="#000000" stroke-linecap="round" stroke-linejoin="round" stroke-width="2.000000"
	d="
M668.500000,728.500000 
	C669.081909,730.116943 667.284424,732.209778 669.500000,733.500000 
"/>
<path fill="none" opacity="1.000000" stroke="#000000" stroke-linecap="round" stroke-linejoin="round" stroke-width="3.000000"
	d="
M492.500000,601.500000 
	C489.080963,603.888367 492.264893,607.744080 490.500000,610.500000 
"/>
<path fill="none" opacity="1.000000" stroke="#000000" stroke-linecap="round" stroke-linejoin="round" stroke-width="3.000000"
	d="
M496.000000,602.000000 
	C493.973724,604.723938 495.115631,607.634277 495.500000,610.500000 
"/>
<path fill="none" opacity="1.000000" stroke="#000000" stroke-linecap="round" stroke-linejoin="round" stroke-width="2.000000"
	d="
M171.000000,127.500000 
	C172.202057,126.392921 171.158005,125.778519 170.514648,124.988075 
	C169.153519,123.315758 168.555695,125.667488 167.500000,125.500000 
"/>
<path fill="none" opacity="1.000000" stroke="#000000" stroke-linecap="round" stroke-linejoin="round" stroke-width="2.000000"
	d="
M114.500000,288.500000 
	C114.500000,288.000000 114.573616,287.486938 114.487587,287.002197 
	C114.055916,284.570007 115.667313,283.093842 117.494041,283.161316 
	C119.486092,283.234924 118.944336,285.501709 118.997215,287.000092 
	C119.014839,287.499481 119.000000,288.000000 119.000000,288.500000 
"/>
<path fill="none" opacity="1.000000" stroke="#000000" stroke-linecap="round" stroke-linejoin="round" stroke-width="2.000000"
	d="
M246.000000,488.500000 
	C245.733841,491.227112 246.265747,491.531067 249.500000,490.500000 
"/>
<path fill="none" opacity="1.000000" stroke="#000000" stroke-linecap="round" stroke-linejoin="round" stroke-width="3.000000"
	d="
M164.000000,708.500000 
	C164.000000,710.183350 164.000000,711.866638 164.000000,713.591675 
	C168.000000,712.858154 168.000000,712.858154 168.000000,708.500000 
"/>
<path fill="none" opacity="1.000000" stroke="#000000" stroke-linecap="round" stroke-linejoin="round" stroke-width="2.000000"
	d="
M143.000000,343.500000 
	C142.731369,346.252502 143.020126,346.500000 146.500000,346.500000 
"/>
<path fill="none" opacity="1.000000" stroke="#000000" stroke-linecap="round" stroke-linejoin="round" stroke-width="3.000000"
	d="
M100.000000,284.000000 
	C100.506287,285.497894 98.616501,287.794495 101.500000,288.500000 
"/>
<path fill="none" opacity="1.000000" stroke="#000000" stroke-linecap="round" stroke-linejoin="round" stroke-width="2.000000"
	d="
M264.000000,503.500000 
	C264.722809,499.526764 262.165131,501.294373 260.500000,501.500000 
"/>
<path fill="none" opacity="1.000000" stroke="#000000" stroke-linecap="round" stroke-linejoin="round" stroke-width="3.000000"
	d="
M270.500000,498.500000 
	C268.162628,499.164429 268.381531,501.313751 268.056763,503.010864 
	C267.800659,504.349030 268.006592,505.764740 266.500000,506.500000 
"/>
<path fill="none" opacity="1.000000" stroke="#000000" stroke-linecap="round" stroke-linejoin="round" stroke-width="3.000000"
	d="
M770.000000,705.500000 
	C770.405151,708.486755 769.423462,711.550537 770.500000,714.500000 
"/>
<path fill="none" opacity="1.000000" stroke="#000000" stroke-linecap="round" stroke-linejoin="round" stroke-width="2.000000"
	d="
M760.500000,710.500000 
	C760.000000,710.500000 759.381775,710.690308 759.020996,710.466248 
	C757.644409,709.611084 756.427612,709.740784 755.549500,711.033630 
	C755.239624,711.489807 755.242493,712.500183 755.546753,712.969666 
	C756.587952,714.576416 758.070190,714.105408 759.500000,713.500000 
"/>
<path fill="none" opacity="1.000000" stroke="#000000" stroke-linecap="round" stroke-linejoin="round" stroke-width="2.000000"
	d="
M498.500000,497.500000 
	C494.262787,499.209381 496.416901,503.759369 494.500000,506.500000 
"/>
<path fill="none" opacity="1.000000" stroke="#000000" stroke-linecap="round" stroke-linejoin="round" stroke-width="2.000000"
	d="
M437.000000,98.500000 
	C438.791992,95.312225 436.685455,95.373222 434.500000,95.500000 
"/>
<path fill="none" opacity="1.000000" stroke="#000000" stroke-linecap="round" stroke-linejoin="round" stroke-width="2.000000"
	d="
M203.500000,65.500000 
	C201.228394,64.290115 199.437424,65.039703 199.633667,67.489288 
	C199.833725,69.986633 201.958237,69.000381 203.500000,68.500000 
"/>
<path fill="none" opacity="1.000000" stroke="#000000" stroke-linecap="round" stroke-linejoin="round" stroke-width="2.000000"
	d="
M451.500000,705.500000 
	C449.316406,706.927979 449.378143,707.607178 452.000000,711.000000 
"/>
<path fill="none" opacity="1.000000" stroke="#000000" stroke-linecap="round" stroke-linejoin="round" stroke-width="2.000000"
	d="
M498.500000,330.500000 
	C495.904297,332.968109 495.626984,336.208984 495.500000,339.500000 
"/>
<path fill="none" opacity="1.000000" stroke="#000000" stroke-linecap="round" stroke-linejoin="round" stroke-width="2.000000"
	d="
M500.500000,711.500000 
	C500.188141,708.725769 500.594208,706.408447 504.002472,705.999512 
	C505.931549,707.542725 504.602875,709.678284 505.000000,711.500000 
"/>
<path fill="none" opacity="1.000000" stroke="#000000" stroke-linecap="round" stroke-linejoin="round" stroke-width="2.000000"
	d="
M216.500000,64.500000 
	C215.500000,63.376190 214.500000,64.729439 213.502258,64.498199 
	C213.198547,66.445648 215.585419,66.151031 215.967514,67.412323 
	C214.617538,70.313148 212.369049,68.363106 210.500000,68.500000 
"/>
<path fill="none" opacity="1.000000" stroke="#000000" stroke-linecap="round" stroke-linejoin="round" stroke-width="2.000000"
	d="
M45.000000,389.500000 
	C43.434109,391.942413 45.171940,392.496979 47.000000,393.000000 
"/>
<path fill="none" opacity="1.000000" stroke="#000000" stroke-linecap="round" stroke-linejoin="round" stroke-width="2.000000"
	d="
M463.500000,238.000000 
	C461.780792,237.641205 459.823303,235.805130 458.540436,238.519119 
	C457.906921,239.859344 459.043854,240.832962 460.026794,241.457855 
	C461.061737,242.115814 461.498474,240.412872 462.500000,240.500000 
"/>
<path fill="none" opacity="1.000000" stroke="#000000" stroke-linecap="round" stroke-linejoin="round" stroke-width="2.000000"
	d="
M275.500000,498.500000 
	C274.042328,498.386230 273.102997,498.618103 272.929321,500.493469 
	C272.741455,502.522369 272.000000,504.500000 271.500000,506.500000 
"/>
<path fill="none" opacity="1.000000" stroke="#000000" stroke-linecap="round" stroke-linejoin="round" stroke-width="2.000000"
	d="
M483.500000,501.500000 
	C484.793518,501.014862 485.977417,499.652649 487.842224,501.079895 
	C487.158356,503.055237 486.285278,504.645447 484.000000,505.000000 
"/>
<path fill="none" opacity="1.000000" stroke="#000000" stroke-linecap="round" stroke-linejoin="round" stroke-width="2.000000"
	d="
M719.500000,500.500000 
	C714.549316,501.511139 717.539856,505.996582 716.000000,508.500000 
"/>
<path fill="none" opacity="1.000000" stroke="#000000" stroke-linecap="round" stroke-linejoin="round" stroke-width="2.000000"
	d="
M66.000000,449.500000 
	C64.702370,450.927368 64.338234,452.634796 64.500000,454.500000 
"/>
<path fill="none" opacity="1.000000" stroke="#000000" stroke-linecap="round" stroke-linejoin="round" stroke-width="2.000000"
	d="
M780.500000,567.500000 
	C782.000000,569.166626 783.500000,570.833313 785.000000,572.500000 
"/>
<path fill="none" opacity="1.000000" stroke="#000000" stroke-linecap="round" stroke-linejoin="round" stroke-width="2.000000"
	d="
M472.000000,594.500000 
	C472.077362,592.163391 470.970612,589.180969 474.995911,589.000244 
	C476.918518,590.446472 476.462036,592.540649 476.500000,594.500000 
"/>
<path fill="none" opacity="1.000000" stroke="#000000" stroke-linecap="round" stroke-linejoin="round" stroke-width="3.000000"
	d="
M479.000000,602.500000 
	C479.505890,604.976990 477.960815,607.727478 480.000000,610.000000 
"/>
<path fill="none" opacity="1.000000" stroke="#000000" stroke-linecap="round" stroke-linejoin="round" stroke-width="3.000000"
	d="
M154.500000,137.500000 
	C154.333328,140.166672 154.166672,142.833328 154.000000,145.500000 
"/>
<path fill="none" opacity="1.000000" stroke="#000000" stroke-linecap="round" stroke-linejoin="round" stroke-width="2.000000"
	d="
M481.500000,67.500000 
	C480.500000,67.333336 479.342224,66.763519 478.531586,67.080742 
	C476.619171,67.829117 476.686035,69.000000 478.500000,70.000000 
"/>
<path fill="none" opacity="1.000000" stroke="#000000" stroke-linecap="round" stroke-linejoin="round" stroke-width="2.000000"
	d="
M136.000000,376.500000 
	C137.238724,378.485352 136.455566,379.712494 134.500000,380.500000 
"/>
<path fill="none" opacity="1.000000" stroke="#000000" stroke-linecap="round" stroke-linejoin="round" stroke-width="2.000000"
	d="
M409.000000,378.500000 
	C407.605804,381.356293 409.434326,381.526947 411.500000,381.500000 
"/>
<path fill="none" opacity="1.000000" stroke="#000000" stroke-linecap="round" stroke-linejoin="round" stroke-width="2.000000"
	d="
M520.500000,484.500000 
	C519.550659,486.031403 518.601257,487.562775 517.448242,489.422668 
	C515.814270,487.952911 515.531555,486.282257 515.500000,484.500000 
"/>
<path fill="none" opacity="1.000000" stroke="#000000" stroke-linecap="round" stroke-linejoin="round" stroke-width="2.000000"
	d="
M52.000000,438.500000 
	C52.617352,441.776825 52.593739,441.797058 48.500000,441.500000 
"/>
<path fill="none" opacity="1.000000" stroke="#000000" stroke-linecap="round" stroke-linejoin="round" stroke-width="2.000000"
	d="
M671.500000,727.500000 
	C669.333313,727.500000 667.166687,727.500000 664.963623,727.500000 
	C664.039551,729.261169 664.697083,731.169434 664.500000,733.000000 
"/>
<path fill="none" opacity="1.000000" stroke="#000000" stroke-linecap="round" stroke-linejoin="round" stroke-width="2.000000"
	d="
M141.000000,438.500000 
	C141.617355,441.776825 141.593735,441.797058 137.500000,441.500000 
"/>
<path fill="none" opacity="1.000000" stroke="#000000" stroke-linecap="round" stroke-linejoin="round" stroke-width="3.000000"
	d="
M40.000000,400.500000 
	C39.448917,403.076843 40.554062,404.963593 42.500000,406.500000 
"/>
<path fill="none" opacity="1.000000" stroke="#000000" stroke-linecap="round" stroke-linejoin="round" stroke-width="3.000000"
	d="
M712.000000,505.500000 
	C712.374695,504.885345 713.795227,504.515869 712.497070,503.503784 
	C711.177124,502.474792 709.833313,503.012177 708.500000,503.500000 
"/>
<path fill="none" opacity="1.000000" stroke="#000000" stroke-linecap="round" stroke-linejoin="round" stroke-width="3.000000"
	d="
M256.500000,199.500000 
	C255.105301,201.842117 256.023315,205.109329 253.500000,207.000000 
"/>
<path fill="none" opacity="1.000000" stroke="#000000" stroke-linecap="round" stroke-linejoin="round" stroke-width="2.000000"
	d="
M514.000000,100.500000 
	C514.617371,103.776833 514.593750,103.797073 510.500000,103.500000 
"/>
<path fill="none" opacity="1.000000" stroke="#000000" stroke-linecap="round" stroke-linejoin="round" stroke-width="3.000000"
	d="
M497.000000,108.500000 
	C497.000000,111.740410 496.731384,112.277626 495.000000,112.500000 
"/>
<path fill="none" opacity="1.000000" stroke="#000000" stroke-linecap="round" stroke-linejoin="round" stroke-width="2.000000"
	d="
M270.000000,158.500000 
	C271.394196,155.643723 269.565674,155.473053 267.500000,155.500000 
"/>
<path fill="none" opacity="1.000000" stroke="#000000" stroke-linecap="round" stroke-linejoin="round" stroke-width="2.000000"
	d="
M512.000000,113.500000 
	C511.382660,116.776833 511.406250,116.797073 515.500000,116.500000 
"/>
<path fill="none" opacity="1.000000" stroke="#000000" stroke-linecap="round" stroke-linejoin="round" stroke-width="2.000000"
	d="
M157.500000,204.500000 
	C161.072449,202.323685 160.698700,206.724396 162.500000,207.500000 
"/>
<path fill="none" opacity="1.000000" stroke="#000000" stroke-linecap="round" stroke-linejoin="round" stroke-width="2.000000"
	d="
M237.500000,204.500000 
	C241.072449,202.323685 240.698700,206.724396 242.500000,207.500000 
"/>
<path fill="none" opacity="1.000000" stroke="#000000" stroke-linecap="round" stroke-linejoin="round" stroke-width="2.000000"
	d="
M137.000000,112.500000 
	C135.605789,115.356285 137.434326,115.526955 139.500000,115.500000 
"/>
<path fill="none" opacity="1.000000" stroke="#000000" stroke-linecap="round" stroke-linejoin="round" stroke-width="2.000000"
	d="
M237.000000,219.500000 
	C235.941986,220.721909 236.768204,222.179352 236.500000,223.500000 
"/>
<path fill="none" opacity="1.000000" stroke="#000000" stroke-linecap="round" stroke-linejoin="round" stroke-width="2.000000"
	d="
M723.500000,500.500000 
	C722.759460,500.685577 721.706116,499.947327 721.461182,501.493866 
	C721.114197,503.684753 720.499939,505.833313 719.999939,508.000000 
"/>
<path fill="none" opacity="1.000000" stroke="#000000" stroke-linecap="round" stroke-linejoin="round" stroke-width="2.000000"
	d="
M676.500000,524.000000 
	C675.529297,525.413574 673.857178,525.704834 672.500000,526.500000 
"/>
<path fill="none" opacity="1.000000" stroke="#000000" stroke-linecap="round" stroke-linejoin="round" stroke-width="2.000000"
	d="
M461.000000,68.500000 
	C462.333344,68.500000 463.666656,68.500000 465.000000,68.500000 
"/>
<path fill="none" opacity="1.000000" stroke="#000000" stroke-linecap="round" stroke-linejoin="round" stroke-width="2.000000"
	d="
M124.000000,192.500000 
	C125.844124,195.341965 122.473068,194.011780 122.000000,195.000000 
"/>
<path fill="none" opacity="1.000000" stroke="#000000" stroke-linecap="round" stroke-linejoin="round" stroke-width="3.000000"
	d="
M466.000000,64.500000 
	C466.000000,67.166664 466.000000,69.833336 466.000000,72.500000 
"/>
<path fill="none" opacity="1.000000" stroke="#000000" stroke-linecap="round" stroke-linejoin="round" stroke-width="2.000000"
	d="
M494.500000,330.500000 
	C490.670624,331.757385 492.672699,335.736145 491.000000,338.000000 
"/>
<path fill="none" opacity="1.000000" stroke="#000000" stroke-linecap="round" stroke-linejoin="round" stroke-width="3.000000"
	d="
M460.000000,64.500000 
	C460.000000,67.166664 460.000000,69.833336 460.000000,72.500000 
"/>
<path fill="none" opacity="1.000000" stroke="#000000" stroke-linecap="round" stroke-linejoin="round" stroke-width="2.000000"
	d="
M117.500000,408.500000 
	C117.297249,406.354980 118.499023,403.470856 114.500000,403.470856 
	C110.500977,403.470856 111.702751,406.354980 111.500000,408.500000 
"/>
<path fill="none" opacity="1.000000" stroke="#000000" stroke-linecap="round" stroke-linejoin="round" stroke-width="3.000000"
	d="
M121.500000,16.500000 
	C122.400932,18.438810 121.846054,20.498940 122.000000,22.500000 
"/>
<path fill="none" opacity="1.000000" stroke="#000000" stroke-linecap="round" stroke-linejoin="round" stroke-width="2.000000"
	d="
M485.000000,128.500000 
	C483.941986,129.721909 484.768219,131.179352 484.500000,132.500000 
"/>
<path fill="none" opacity="1.000000" stroke="#000000" stroke-linecap="round" stroke-linejoin="round" stroke-width="3.000000"
	d="
M687.500000,484.500031 
	C685.166687,484.833344 682.833313,485.166687 680.500000,485.500031 
"/>
<path fill="none" opacity="1.000000" stroke="#000000" stroke-linecap="round" stroke-linejoin="round" stroke-width="3.000000"
	d="
M492.500000,235.500000 
	C495.431854,236.892029 493.442749,239.514313 494.000000,241.500000 
"/>
<path fill="none" opacity="1.000000" stroke="#000000" stroke-linecap="round" stroke-linejoin="round" stroke-width="2.000000"
	d="
M192.000000,65.500000 
	C190.118057,66.315102 191.697845,68.428360 190.500000,69.500000 
"/>
<path fill="none" opacity="1.000000" stroke="#000000" stroke-linecap="round" stroke-linejoin="round" stroke-width="3.000000"
	d="
M600.000000,728.500000 
	C599.256409,730.093567 601.578979,732.607056 598.500000,733.500000 
"/>
<path fill="none" opacity="1.000000" stroke="#000000" stroke-linecap="round" stroke-linejoin="round" stroke-width="2.000000"
	d="
M511.500000,586.500000 
	C511.768219,587.820618 510.941986,589.278076 512.000000,590.500000 
"/>
<path fill="none" opacity="1.000000" stroke="#000000" stroke-linecap="round" stroke-linejoin="round" stroke-width="2.000000"
	d="
M461.000000,490.000000 
	C461.120636,488.494873 462.846039,487.168091 461.243530,485.139923 
	C457.675720,484.675720 457.935211,487.935211 457.000000,490.000000 
"/>
<path fill="none" opacity="1.000000" stroke="#000000" stroke-linecap="round" stroke-linejoin="round" stroke-width="2.000000"
	d="
M115.500000,326.500000 
	C111.313919,325.884460 111.337585,328.636749 111.500000,331.500000 
"/>
<path fill="none" opacity="1.000000" stroke="#000000" stroke-linecap="round" stroke-linejoin="round" stroke-width="2.000000"
	d="
M528.500000,111.500000 
	C527.528381,111.837128 526.308716,110.685478 525.200378,112.486717 
	C526.405884,113.404625 527.731873,114.414291 529.135498,115.483124 
	C527.500000,116.731911 526.000000,117.617058 524.500000,115.500000 
"/>
<path fill="none" opacity="1.000000" stroke="#000000" stroke-linecap="round" stroke-linejoin="round" stroke-width="2.000000"
	d="
M485.499969,112.999992 
	C484.833313,114.166656 484.166656,115.333321 483.499969,116.499992 
"/>
<path fill="none" opacity="1.000000" stroke="#000000" stroke-linecap="round" stroke-linejoin="round" stroke-width="2.000000"
	d="
M753.500000,594.500000 
	C751.166687,594.500000 748.833313,594.500000 746.500000,594.500000 
"/>
<path fill="none" opacity="1.000000" stroke="#000000" stroke-linecap="round" stroke-linejoin="round" stroke-width="2.000000"
	d="
M515.500000,588.500000 
	C514.264099,588.930786 513.465637,589.798950 512.971252,590.954163 
	C513.835083,592.165405 514.667542,593.332703 515.500000,594.500000 
"/>
<path fill="none" opacity="1.000000" stroke="#000000" stroke-linecap="round" stroke-linejoin="round" stroke-width="2.000000"
	d="
M452.000000,590.500000 
	C453.166656,590.500000 454.333344,590.500000 455.500000,590.500000 
"/>
<path fill="none" opacity="1.000000" stroke="#000000" stroke-linecap="round" stroke-linejoin="round" stroke-width="2.000000"
	d="
M123.500000,199.500000 
	C123.666664,200.666672 123.833336,201.833328 124.000000,203.000000 
"/>
<path fill="none" opacity="1.000000" stroke="#000000" stroke-linecap="round" stroke-linejoin="round" stroke-width="2.000000"
	d="
M269.000000,501.000000 
	C270.166656,502.242249 271.333344,500.837128 272.500000,501.000000 
"/>
<path fill="none" opacity="1.000000" stroke="#000000" stroke-linecap="round" stroke-linejoin="round" stroke-width="2.000000"
	d="
M65.500000,388.500000 
	C63.821018,388.518555 62.022083,388.175812 62.457470,391.006531 
	C62.950344,394.211029 65.146797,392.052979 66.500000,392.500000 
"/>
<path fill="none" opacity="1.000000" stroke="#000000" stroke-linecap="round" stroke-linejoin="round" stroke-width="2.000000"
	d="
M132.000000,389.500000 
	C129.872467,392.263367 132.401794,392.365631 134.000000,393.000000 
"/>
<path fill="none" opacity="1.000000" stroke="#000000" stroke-linecap="round" stroke-linejoin="round" stroke-width="2.000000"
	d="
M111.500000,400.500000 
	C111.666664,401.666656 111.833336,402.833344 112.000000,404.000000 
"/>
<path fill="none" opacity="1.000000" stroke="#000000" stroke-linecap="round" stroke-linejoin="round" stroke-width="2.000000"
	d="
M117.499992,400.500000 
	C117.333328,401.666656 117.166664,402.833344 116.999992,404.000000 
"/>
<path fill="none" opacity="1.000000" stroke="#000000" stroke-linecap="round" stroke-linejoin="round" stroke-width="2.000000"
	d="
M415.000000,395.500000 
	C415.838226,396.982910 417.268280,396.394348 418.500000,396.500000 
"/>
<path fill="none" opacity="1.000000" stroke="#000000" stroke-linecap="round" stroke-linejoin="round" stroke-width="2.000000"
	d="
M607.500000,594.500000 
	C605.500000,594.500000 603.500000,594.500000 601.500000,594.500000 
"/>
<path fill="none" opacity="1.000000" stroke="#000000" stroke-linecap="round" stroke-linejoin="round" stroke-width="2.000000"
	d="
M54.500000,449.500000 
	C55.638111,450.216644 59.192116,446.705475 58.000000,451.500000 
"/>
<path fill="none" opacity="1.000000" stroke="#000000" stroke-linecap="round" stroke-linejoin="round" stroke-width="2.000000"
	d="
M231.000000,483.000000 
	C230.333328,483.500000 229.418030,483.860687 229.045532,484.525513 
	C227.814362,486.722748 226.715561,489.465363 229.574600,490.845459 
	C231.536377,491.792450 233.839584,491.019165 234.568024,488.016510 
	C235.286194,485.056305 235.494797,482.869781 231.500000,483.000000 
"/>
<path fill="none" opacity="1.000000" stroke="#000000" stroke-linecap="round" stroke-linejoin="round" stroke-width="2.000000"
	d="
M237.500000,168.500000 
	C235.349274,171.216629 236.784653,174.144196 236.889404,177.378632 
	C238.908600,175.951599 242.556015,177.791550 242.532867,173.499817 
	C242.515854,170.348602 241.463501,168.399521 238.000000,168.500000 
"/>
<path fill="none" opacity="1.000000" stroke="#000000" stroke-linecap="round" stroke-linejoin="round" stroke-width="2.000000"
	d="
M489.500000,586.500000 
	C485.993317,588.398682 489.172241,591.634460 487.808136,593.920959 
	C490.833527,595.167114 493.226990,594.405212 493.880432,591.473328 
	C494.464111,588.854492 493.736786,586.243896 490.000000,586.500000 
"/>
<path fill="none" opacity="1.000000" stroke="#000000" stroke-linecap="round" stroke-linejoin="round" stroke-width="3.000000"
	d="
M163.500000,582.500000 
	C158.900757,583.744690 161.970612,587.545776 160.840088,589.940186 
	C163.532532,590.930908 166.043686,591.118286 166.919113,587.977478 
	C167.590973,585.567017 167.034744,583.223450 164.000000,582.500000 
"/>
<path fill="none" opacity="1.000000" stroke="#000000" stroke-linecap="round" stroke-linejoin="round" stroke-width="2.000000"
	d="
M451.500000,233.500000 
	C447.669861,235.119736 450.318207,238.127716 449.316650,240.500656 
	C452.610565,241.376572 454.991364,241.404190 455.443146,237.992477 
	C455.758972,235.607513 455.519104,233.170319 452.000000,233.500000 
"/>
<path fill="none" opacity="1.000000" stroke="#000000" stroke-linecap="round" stroke-linejoin="round" stroke-width="2.000000"
	d="
M497.500000,357.500000 
	C493.993317,359.398651 497.172241,362.634460 495.798920,364.936432 
	C498.831757,365.895874 501.710114,366.247803 502.413727,362.483856 
	C502.988159,359.410980 501.463501,357.399536 498.000000,357.500000 
"/>
</svg>